<svg width="66" height="66" viewBox="0 0 66 66" fill="none" xmlns="http://www.w3.org/2000/svg">
<g clip-path="url(#clip0_0_310)">
<path d="M33 0C14.8031 0 0 14.8031 0 33C0 51.1969 14.8031 66 33 66C51.1969 66 66 51.1969 66 33C66 14.8031 51.1969 0 33 0Z" fill="#1084FF"/>
<path d="M49.7256 26.0068L31.8504 43.8814C31.3142 44.4177 30.6102 44.6876 29.9062 44.6876C29.2023 44.6876 28.4983 44.4177 27.9621 43.8814L19.0247 34.9441C17.9491 33.869 17.9491 32.1309 19.0247 31.0558C20.0998 29.9802 21.8375 29.9802 22.9131 31.0558L29.9062 38.049L45.8372 22.1185C46.9123 21.0429 48.65 21.0429 49.7256 22.1185C50.8006 23.1935 50.8006 24.9312 49.7256 26.0068Z" fill="#FAFAFA"/>
</g>
<defs>
<clipPath id="clip0_0_310">
<rect width="66" height="66" fill="white"/>
</clipPath>
</defs>
</svg>
