<svg width="409" height="395" viewBox="0 0 409 395" fill="none" xmlns="http://www.w3.org/2000/svg">
<g clip-path="url(#clip0_0_338)">
<path d="M296.87 389.05C347.56 378.02 390.8 344.64 403.31 292.76C411.06 260.63 409.88 218.24 395.09 188.25C380.47 158.6 352.4 138.98 329.65 116.06C299.33 85.52 275.7 44.42 239.65 20.68C203.64 -3.00998 157.17 -4.94997 116.86 7.79003C84.57 17.99 61.9 34.96 43.36 63.26C26.15 89.52 15.38 119.92 11.63 151.06C3.40001 219.47 25.69 294.31 77.82 340.77C119.09 377.55 179.85 393.21 233.77 394.33C254.91 394.77 276.18 393.56 296.88 389.06L296.87 389.05Z" fill="#F4F7FF"/>
<path d="M5.07 140.15C5.07 141.62 3.94 142.82 2.54 142.83C1.14 142.84 0 141.64 0 140.17C0 138.7 1.13 137.5 2.53 137.49C3.93 137.49 5.06 138.68 5.07 140.15Z" fill="white"/>
<path d="M307.19 62.74L310.53 61.23L309.83 57.23L306.15 56.94C305.68 55.71 305.07 54.54 304.32 53.46L306.19 50.25L303.32 47.38L300.11 49.3C298.25 48.04 296.15 47.19 293.94 46.79L293.01 43.11H288.94L287.99 46.81C286.74 47.05 285.52 47.44 284.35 47.96L281.44 45.45L278.12 47.71L279.5 51.3C278.63 52.21 277.87 53.23 277.24 54.33L273.42 53.95L272.04 57.77L275.2 60.03C275.04 60.92 274.97 61.82 274.97 62.72C274.95 63.1 274.95 63.47 274.97 63.85L271.63 65.72L272.69 69.63H276.46C277 70.81 277.69 71.92 278.52 72.93L276.89 76.32L280.01 78.92L283.01 76.77C284.15 77.43 285.38 77.94 286.65 78.31L287.28 81.92L291.32 82.26L292.54 78.83C293.87 78.72 295.17 78.44 296.43 77.99L298.98 80.57L302.5 78.56L301.53 75.06C302.55 74.19 303.46 73.2 304.24 72.1L307.81 72.76L309.53 69.08L306.73 66.82C307.04 65.49 307.19 64.12 307.16 62.75L307.19 62.74ZM301.18 62.74C301.18 68.34 296.64 72.88 291.04 72.88C285.44 72.88 280.9 68.34 280.9 62.74C280.9 57.14 285.44 52.6 291.04 52.6C291.04 52.6 291.05 52.6 291.06 52.6C296.63 52.6 301.15 57.1 301.18 62.67V62.74Z" fill="black"/>
<path opacity="0.1" d="M308.35 62.21L309.09 61.87C309.94 61.49 310.41 60.58 310.25 59.67L310.09 58.78C309.93 57.87 309.17 57.18 308.25 57.1L307.36 57.03C306.64 56.97 306 56.55 305.7 55.89C305.47 55.38 305.21 54.89 304.92 54.41C304.55 53.79 304.57 53.01 304.93 52.39L305.39 51.6C305.86 50.8 305.73 49.79 305.07 49.14L304.43 48.5C303.77 47.84 302.75 47.71 301.95 48.19L301.16 48.66C300.54 49.03 299.76 49.05 299.13 48.69C297.86 47.95 296.49 47.4 295.06 47.03C294.35 46.85 293.8 46.28 293.62 45.57L293.39 44.64C293.16 43.74 292.35 43.1 291.42 43.1H290.52C289.59 43.1 288.78 43.73 288.55 44.63L288.3 45.61C288.12 46.31 287.59 46.87 286.89 47.06C286.39 47.19 285.9 47.35 285.42 47.53C284.74 47.78 283.98 47.63 283.43 47.16L282.63 46.48C281.93 45.88 280.92 45.82 280.16 46.34L279.46 46.82C278.68 47.35 278.37 48.35 278.71 49.23L279.07 50.17C279.33 50.84 279.22 51.61 278.76 52.16C278.44 52.54 278.14 52.94 277.86 53.36C277.45 53.97 276.73 54.29 275.99 54.22L275 54.12C274.07 54.03 273.2 54.58 272.88 55.45L272.56 56.33C272.25 57.19 272.55 58.15 273.29 58.67L274.21 59.32C274.79 59.74 275.12 60.43 275.05 61.14C275 61.66 274.97 62.19 274.98 62.71C274.98 62.71 274.98 62.71 274.98 62.72C274.94 63.43 274.57 64.07 273.95 64.41L273.02 64.93C272.21 65.39 271.81 66.34 272.05 67.24L272.29 68.12C272.53 69.01 273.33 69.62 274.25 69.62H275.22C275.95 69.62 276.63 70 276.98 70.64C277.24 71.12 277.53 71.58 277.84 72.03C278.25 72.62 278.3 73.39 277.99 74.04L277.58 74.89C277.18 75.73 277.4 76.74 278.11 77.33L278.8 77.91C279.51 78.5 280.53 78.54 281.28 78L281.99 77.49C282.58 77.07 283.36 76.98 284.02 77.3C284.53 77.55 285.05 77.77 285.58 77.96C286.25 78.2 286.73 78.8 286.85 79.5L287 80.37C287.16 81.28 287.91 81.97 288.83 82.05L289.75 82.13C290.67 82.21 291.53 81.65 291.84 80.78L292.12 80C292.36 79.31 292.95 78.8 293.67 78.68C294.24 78.59 294.8 78.47 295.35 78.32C296.04 78.13 296.78 78.35 297.28 78.86L297.87 79.46C298.52 80.11 299.52 80.25 300.32 79.79L301.11 79.34C301.92 78.88 302.31 77.93 302.06 77.03L301.84 76.25C301.65 75.55 301.83 74.8 302.35 74.29C302.77 73.88 303.16 73.45 303.54 73C304 72.44 304.74 72.19 305.45 72.32L306.25 72.47C307.16 72.64 308.07 72.17 308.46 71.33L308.84 70.52C309.23 69.67 309 68.67 308.27 68.08L307.66 67.59C307.11 67.14 306.81 66.43 306.92 65.73C307.02 65.13 307.08 64.53 307.11 63.93C307.15 63.19 307.62 62.53 308.3 62.23L308.35 62.21ZM301.18 62.74C301.18 68.34 296.64 72.88 291.04 72.88C285.44 72.88 280.9 68.34 280.9 62.74C280.9 57.14 285.44 52.6 291.04 52.6C291.04 52.6 291.05 52.6 291.06 52.6C296.63 52.6 301.15 57.1 301.18 62.67V62.74Z" fill="white"/>
<path d="M353.23 113.16L358.43 110.81L357.34 104.59L351.61 104.13C350.89 102.21 349.92 100.39 348.73 98.72L351.68 93.73L347.22 89.3L342.19 92.29C339.32 90.32 336.06 88.97 332.63 88.35L331.19 82.62H324.86L323.38 88.38C321.43 88.77 319.53 89.38 317.72 90.21L313.19 86.31L308.02 89.82L310.16 95.41C308.8 96.83 307.62 98.41 306.65 100.12L300.71 99.49L298.57 105.43L303.49 108.77C303.25 110.16 303.13 111.57 303.14 112.99C303.11 113.58 303.11 114.16 303.14 114.75L297.94 117.67L299.59 123.75H305.46C306.31 125.58 307.39 127.31 308.66 128.88L306.13 134.12L310.98 138.2L315.65 134.69C317.43 135.72 319.33 136.52 321.31 137.08L322.26 142.74L328.55 143.3L330.45 137.96C332.51 137.76 334.54 137.31 336.49 136.62L340.46 140.66L345.94 137.5L344.43 132.05C346.02 130.71 347.44 129.18 348.65 127.48L354.2 128.5L356.87 122.77L352.51 119.26C352.99 117.27 353.22 115.23 353.21 113.18L353.23 113.16ZM343.88 113.16C343.88 121.87 336.82 128.94 328.1 128.94C319.38 128.94 312.32 121.88 312.32 113.16C312.32 104.44 319.38 97.38 328.1 97.38C336.77 97.38 343.82 104.38 343.88 113.05V113.16Z" fill="black"/>
<path opacity="0.1" d="M353.23 113.16L358.43 110.81L357.34 104.59L351.61 104.13C350.89 102.21 349.92 100.39 348.73 98.72L351.68 93.73L347.22 89.3L342.19 92.29C339.32 90.32 336.06 88.97 332.63 88.35L331.19 82.62H324.86L323.38 88.38C321.43 88.77 319.53 89.38 317.72 90.21L313.19 86.31L308.02 89.82L310.16 95.41C308.8 96.83 307.62 98.41 306.65 100.12L300.71 99.49L298.57 105.43L303.49 108.77C303.25 110.16 303.13 111.57 303.14 112.99C303.11 113.58 303.11 114.16 303.14 114.75L297.94 117.67L299.59 123.75H305.46C306.31 125.58 307.39 127.31 308.66 128.88L306.13 134.12L310.98 138.2L315.65 134.69C317.43 135.72 319.33 136.52 321.31 137.08L322.26 142.74L328.55 143.3L330.45 137.96C332.51 137.76 334.54 137.31 336.49 136.62L340.46 140.66L345.94 137.5L344.43 132.05C346.02 130.71 347.44 129.18 348.65 127.48L354.2 128.5L356.87 122.77L352.51 119.26C352.99 117.27 353.22 115.23 353.21 113.18L353.23 113.16ZM343.88 113.16C343.88 121.87 336.82 128.94 328.1 128.94C319.38 128.94 312.32 121.88 312.32 113.16C312.32 104.44 319.38 97.38 328.1 97.38C336.77 97.38 343.82 104.38 343.88 113.05V113.16Z" fill="white"/>
<path d="M358.218 256.899C371.7 251.42 378.187 236.048 372.707 222.567C367.227 209.085 351.856 202.598 338.374 208.078C324.893 213.558 318.406 228.929 323.886 242.411C329.366 255.892 344.737 262.379 358.218 256.899Z" fill="black"/>
<path d="M370.865 236.15C372.9 223.695 364.454 211.949 351.999 209.914C339.544 207.879 327.798 216.326 325.763 228.78C323.728 241.235 332.175 252.981 344.629 255.016C357.084 257.051 368.83 248.604 370.865 236.15Z" fill="white" stroke="black" stroke-miterlimit="10"/>
<path d="M333.47 236.66L348.3 232.46V211.72" stroke="black" stroke-width="2" stroke-miterlimit="10"/>
<path d="M313.44 255.04V156.67" stroke="black" stroke-linecap="round" stroke-linejoin="round"/>
<path d="M109.09 263.44V65.16" stroke="black" stroke-linecap="round" stroke-linejoin="round"/>
<path d="M42.6899 180.06H359.3" stroke="black" stroke-linecap="round" stroke-linejoin="round"/>
<path d="M204.94 57.58L122.93 108.12" stroke="black" stroke-width="0.5" stroke-linecap="round" stroke-linejoin="round"/>
<path d="M215.76 61L150.05 101.48" stroke="black" stroke-width="0.5" stroke-linecap="round" stroke-linejoin="round"/>
<path d="M244.46 43.31L224.61 55.54" stroke="black" stroke-width="0.5" stroke-linecap="round" stroke-linejoin="round"/>
<path d="M65.87 318.81H345.07" stroke="black" stroke-miterlimit="10"/>
<path d="M200.86 335.33L215.86 369.83L265.41 363.51L236.66 335.33H200.86Z" fill="white" stroke="black" stroke-linecap="round" stroke-linejoin="round"/>
<path d="M254.22 332.34L288.06 357.32L234.75 364.51L212.4 332.93L254.22 332.34Z" fill="white" stroke="black" stroke-linecap="round" stroke-linejoin="round"/>
<path d="M61.9701 347.81L84.6401 326.88H174.89L139.29 350.34L61.9701 347.81Z" fill="white" stroke="black" stroke-linecap="round" stroke-linejoin="round"/>
<path d="M138.37 353.44L56.7901 348.92L46.2601 318.11L36.3101 288.97L120.65 292.4L134.42 339.85L138.37 353.44Z" fill="white" stroke="black" stroke-linecap="round" stroke-linejoin="round"/>
<path d="M138.37 353.44L56.79 348.92L46.26 318.11C59.68 319.65 73.2 317.56 96.62 321.36C117.13 324.67 128.34 332.58 134.42 339.85L138.37 353.44Z" fill="black" stroke="black" stroke-miterlimit="10"/>
<path d="M174.89 327.539V330.419L139.11 353.239L118.46 293.379L121.58 291.979L140.62 348.919L174.89 327.539Z" fill="white" stroke="black" stroke-miterlimit="10"/>
<path d="M122.05 291.77L118.46 293.38L36.98 288.51L41.17 286.47L121.96 291.48L122.05 291.77Z" fill="white" stroke="black" stroke-miterlimit="10"/>
<path d="M122.05 291.77L121.96 291.48L121.82 290.96L41.2 285.98H41.07L35.71 288.58L35.82 288.95L118.43 293.88H118.55L122.18 292.26L122.05 291.77ZM118.36 292.87L38.91 288.13L41.27 286.98L120.56 291.89L118.36 292.87Z" fill="black"/>
<path d="M140.62 348.92L139.11 353.24" stroke="black" stroke-miterlimit="10"/>
<path d="M328.56 309.77H281.96C281.96 309.77 281.96 322.28 288.54 338.65C288.54 341.79 296.07 344.3 305.36 344.3C314.65 344.3 322.17 341.77 322.17 338.65C322.19 338.5 322.19 338.34 322.17 338.18C328.5 322.04 328.57 309.77 328.57 309.77H328.56Z" fill="white" stroke="black" stroke-linecap="round" stroke-linejoin="round"/>
<path d="M305.41 316.56C318.333 316.56 328.81 313.52 328.81 309.77C328.81 306.02 318.333 302.98 305.41 302.98C292.487 302.98 282.01 306.02 282.01 309.77C282.01 313.52 292.487 316.56 305.41 316.56Z" fill="white" stroke="black" stroke-linecap="round" stroke-linejoin="round"/>
<path d="M305.41 304.09C317.01 304.09 326.41 306.63 326.41 309.77C326.41 312.91 317.01 315.45 305.41 315.45C293.81 315.45 284.41 312.91 284.41 309.77C284.41 306.63 293.81 304.09 305.41 304.09Z" fill="white" stroke="black" stroke-linecap="round" stroke-linejoin="round"/>
<path d="M286.39 312.17C289.75 314.1 297 315.43 305.41 315.43C313.82 315.43 321.07 314.1 324.42 312.17C321.07 310.25 313.81 308.91 305.41 308.91C297.01 308.91 289.75 310.25 286.39 312.17Z" fill="black" stroke="black" stroke-linecap="round" stroke-linejoin="round"/>
<path d="M295.62 312.71C295.62 312.71 289.53 297.51 291.31 293.46C293.09 289.41 298.91 289.92 300.94 293.97C302.97 298.02 303.98 313.22 303.98 313.22C303.98 313.22 297.89 315.25 295.62 312.71Z" fill="#377AFA" stroke="black" stroke-linecap="round" stroke-linejoin="round"/>
<path d="M300.95 314.23C300.95 314.23 296.13 287.4 297.39 282.31C298.65 277.22 305 275.46 309.55 279.26C314.1 283.06 312.37 302.32 312.37 305.1C312.37 307.88 312.12 313.71 312.12 313.71C308.51 314.88 304.65 315.05 300.95 314.22V314.23Z" fill="#377AFA" stroke="black" stroke-linecap="round" stroke-linejoin="round"/>
<path d="M310.82 313.72C310.82 313.72 307.06 303.33 309.31 299.27C311.56 295.22 316.15 296.74 316.15 300.03C316.15 303.32 316.4 311.19 315.9 312.95C315.39 314.72 312.61 315.24 310.83 313.71L310.82 313.72Z" fill="#377AFA" stroke="black" stroke-linecap="round" stroke-linejoin="round"/>
<path d="M305.26 313.47C298.92 289.46 304.24 277.5 304.24 277.5C304.24 277.5 311.84 290.68 307.78 313.47" stroke="black" stroke-linecap="round" stroke-linejoin="round"/>
<path d="M294.86 292.95C294.86 292.95 289.03 293.2 298.66 313.22" stroke="black" stroke-linecap="round" stroke-linejoin="round"/>
<path d="M231.21 297.06C231.21 297.06 239.46 306.21 241.94 319.43H162.06C162.06 319.43 163.63 305.33 168.53 297.06C173.43 288.79 231.21 297.06 231.21 297.06Z" fill="black"/>
<path d="M269.72 188.99C266.39 186.25 237.58 174.33 237.58 174.33C236.04 165.11 230.98 160.61 230.98 160.61C230.98 160.61 213.53 155.55 207.95 159.84C202.38 164.15 199.66 169.13 199.66 169.13C176.23 167.64 168.33 175.45 168.33 175.45C168.33 175.45 160.03 210.17 154.94 228.25C149.86 246.33 142.58 260.1 142.58 260.1C142.58 260.1 135.04 271.68 140.3 277.96C145.58 284.24 168.18 284.34 168.18 284.34L164.06 306.99C164.06 306.99 170.26 312.04 195.19 317.8C220.12 323.56 240.44 308.53 240.44 308.53L231.78 286.23C240.8 284.41 254.38 274.48 254.38 274.48C267.89 254.44 272.55 201.17 272.89 197.22C273.23 193.25 273.03 191.74 269.71 189L269.72 188.99ZM235.73 260.1C235.73 260.1 231.51 257.6 231.4 257.54L231.22 250.54L248.1 231.58L235.74 260.09L235.73 260.1Z" fill="#377AFA"/>
<path opacity="0.1" d="M269.72 188.99C266.39 186.25 237.58 174.33 237.58 174.33C236.04 165.11 230.98 160.61 230.98 160.61C230.98 160.61 213.53 155.55 207.95 159.84C202.38 164.15 199.66 169.13 199.66 169.13C176.23 167.64 168.33 175.45 168.33 175.45C168.33 175.45 160.03 210.17 154.94 228.25C149.86 246.33 142.58 260.1 142.58 260.1C142.58 260.1 135.04 271.68 140.3 277.96C145.58 284.24 168.18 284.34 168.18 284.34L164.06 306.99C164.06 306.99 170.26 312.04 195.19 317.8C220.12 323.56 240.44 308.53 240.44 308.53L231.78 286.23C240.8 284.41 254.38 274.48 254.38 274.48C267.89 254.44 272.55 201.17 272.89 197.22C273.23 193.25 273.03 191.74 269.71 189L269.72 188.99ZM235.73 260.1C235.73 260.1 231.51 257.6 231.4 257.54L231.22 250.54L248.1 231.58L235.74 260.09L235.73 260.1Z" fill="black"/>
<path d="M193.18 268.05C193.18 268.05 187.99 275.37 187.18 280.94C187.18 280.94 192.5 281.38 198.17 280.54C203.83 279.7 206.44 280.34 210.65 270.75L214.56 270.69C214.56 270.69 219.67 278.3 227.41 276.65C227.41 276.65 229 277.95 231.74 276.71L223.08 265.72C223.08 265.72 234.55 276.01 238.4 271.03L224.09 261.24C224.09 261.24 231.3 262.47 235.02 264.46C238.75 266.44 240.11 261.85 240.11 261.85L228.24 256.51C228.24 256.51 219.15 257.25 216.98 256.45C214.81 255.66 213.43 254.61 211.84 256.17C210.25 257.73 198.62 267.58 198.62 267.58L193.2 268.06L193.18 268.05Z" fill="white"/>
<path d="M187.5 281C187.5 281 202.78 280.96 205.42 279.06C208.06 277.17 210.63 270.75 210.63 270.75L214.54 270.69C214.54 270.69 222.07 278.59 227.39 276.65C227.39 276.65 214.63 263.08 212.35 262.29" stroke="black" stroke-width="0.99" stroke-linecap="round" stroke-linejoin="round"/>
<path d="M226.92 276.15C226.92 276.15 229.09 278.2 231.72 276.71C231.72 276.71 218.48 260.37 215.56 259.89" stroke="black" stroke-width="0.99" stroke-linecap="round" stroke-linejoin="round"/>
<path d="M194.1 267.65L198.6 267.58C198.6 267.58 208.41 260.14 210.23 257.73C212.04 255.32 214.16 255.02 215.5 256.06C216.84 257.1 228.22 256.52 228.22 256.52L240.09 261.86C240.09 261.86 238.43 265.62 235.77 264.74C233.11 263.86 227.12 261.24 224.07 261.26" stroke="black" stroke-width="0.99" stroke-linecap="round" stroke-linejoin="round"/>
<path d="M221.1 259C221.1 259 228.74 264.84 232.09 267.03C235.44 269.23 238.38 271.02 238.38 271.02C238.38 271.02 235.5 273.06 232.7 271.92C229.9 270.77 220.4 263.8 220.4 263.8" stroke="black" stroke-width="0.99" stroke-linecap="round" stroke-linejoin="round"/>
<path d="M187.73 282.77C187.73 282.77 188.63 270.84 196.37 266.14L184.49 264.07C184.49 264.07 176.46 273 176.77 282.4L187.74 282.77H187.73Z" fill="white"/>
<path d="M203.81 182.56C203.81 182.56 202.07 166.71 207.96 159.84C207.96 159.84 192.44 171.92 189.21 194.93C189.21 194.93 199.16 183.39 203.82 182.56H203.81Z" fill="white"/>
<path d="M170.63 261.61L164.19 251.86C163.86 251.36 163.08 251.73 163.27 252.3C163.97 254.43 165.06 257.2 166.49 259.28L159.18 253.17C158.59 252.67 157.7 253.25 157.94 253.99C158.63 256.2 160.03 259.46 162.65 261.4L170.63 261.59V261.61Z" fill="white" stroke="black" stroke-miterlimit="10"/>
<path d="M230.99 160.6C230.99 160.6 235.76 164.78 236.68 169.55C237.59 174.32 239.13 183.53 239.13 183.53L228.47 204.97C228.47 204.97 222.2 189.59 212.49 185.66C212.49 185.66 228.94 175.76 230.99 160.59V160.6Z" fill="white"/>
<path d="M230.98 160.6C231.8 161.75 239.76 159.76 240.83 159.5C246.97 158.04 252.97 154.95 256.4 149.46C260.95 142.17 259.49 134.68 257.54 126.89C256.11 121.18 254.55 115.51 252.95 109.85C251.55 104.9 250.77 99.56 248.65 94.87C245.59 88.1 240.69 82.15 233.84 78.98C215.22 70.38 189.17 84.13 182.43 89.66C175.69 95.18 175.17 111.2 191.51 120.33C207.83 129.45 230.95 160.56 230.98 160.6Z" fill="black"/>
<path d="M195.98 100.29C195.98 100.29 189.43 105.6 189.23 108.64C189.03 111.68 190.01 114.95 189.62 120.79C189.23 126.63 188.16 137.15 193.27 144.11C193.27 144.11 196.76 152.37 207.33 156.67L207.96 159.84C207.96 159.84 203.69 168.78 203.48 176.26C203.33 181.54 204.63 186.37 213.41 185.61C225.47 178.46 230.57 162.43 230.57 162.43L226.74 143.96L227.78 134.71C227.78 134.71 233.44 135.15 235.14 130.26C235.14 130.26 238.45 114.17 226.49 125.58C211.52 121.68 201.39 112.33 195.98 100.3V100.29Z" fill="white"/>
<path d="M200.23 139.24C200.23 139.24 205.06 141.93 208.99 137.18" stroke="black" stroke-width="0.75" stroke-linecap="round" stroke-linejoin="round"/>
<path d="M198.91 121.28C198.91 121.28 197.18 131.39 197.8 133.82C197.8 133.82 199.33 135.65 202.98 135.18" stroke="black" stroke-linecap="round" stroke-linejoin="round"/>
<path d="M195.98 100.29C195.98 100.29 190.69 105.25 188.78 109.54C188.78 109.54 189.62 116.11 189.62 120.79C189.62 125.47 187.51 133.83 191.92 141.89C196.33 149.95 205.86 157.8 211.28 157.55C216.69 157.3 226.5 151.74 228.22 136.26C228.22 136.26 237.68 135.19 237.23 130.96C237.23 130.96 245.52 116.5 195.98 100.29Z" stroke="black" stroke-linecap="round" stroke-linejoin="round"/>
<path d="M230.57 162.43L226.35 144.32" stroke="black" stroke-linecap="round" stroke-linejoin="round"/>
<path d="M203.81 182.56C204.35 183.2 205.03 183.77 205.86 184.24C208.33 185.63 210.88 186 213.4 185.62" stroke="black" stroke-linecap="round" stroke-linejoin="round"/>
<path d="M207.33 156.67C207.51 157.73 207.96 159.84 207.96 159.84C207.96 159.84 207.83 160.04 207.62 160.4" stroke="black" stroke-linecap="round" stroke-linejoin="round"/>
<path d="M198.73 122.22C198.99 127.3 196 131.58 192.04 131.78C188.09 131.98 184.67 128.03 184.41 122.95C184.15 117.87 187.14 113.59 191.1 113.39C195.05 113.19 198.47 117.14 198.73 122.22Z" stroke="black" stroke-width="0.75" stroke-linecap="round" stroke-linejoin="round"/>
<path d="M215.72 120.45C215.98 125.53 212.99 129.81 209.03 130.01C205.08 130.21 201.66 126.26 201.4 121.18C201.14 116.1 204.13 111.82 208.09 111.62C212.04 111.42 215.46 115.37 215.72 120.45Z" stroke="black" stroke-width="0.75" stroke-linecap="round" stroke-linejoin="round"/>
<path d="M209.34 257.36L183.51 241.43C183.36 241.3 183.31 241.09 183.39 240.91C183.49 240.69 183.75 240.59 183.97 240.69L209.8 256.64C210 256.76 210.06 257.02 209.94 257.22C209.86 257.36 209.72 257.44 209.56 257.44C209.48 257.44 209.4 257.41 209.34 257.36Z" fill="black"/>
<path d="M195.74 252.31L181.71 244.11C181.5 243.99 181.43 243.72 181.55 243.51C181.68 243.31 181.95 243.25 182.15 243.37L196.18 251.57C196.38 251.69 196.45 251.95 196.33 252.15C196.25 252.28 196.1 252.37 195.95 252.37C195.87 252.37 195.8 252.35 195.73 252.31H195.74Z" fill="black"/>
<path d="M258.04 211.21C257.83 211.1 257.74 210.84 257.84 210.63C261.52 203.69 265.63 197 270.17 190.59C270.31 190.39 270.57 190.34 270.77 190.47C270.77 190.47 270.78 190.47 270.79 190.48C270.98 190.62 271.02 190.88 270.89 191.07C266.38 197.43 262.28 204.07 258.62 210.95C258.55 211.11 258.39 211.21 258.22 211.21H258.04Z" fill="black"/>
<path d="M196.36 266.14C196.36 266.14 187.92 272.22 187.72 282.77H176.78C176.78 282.77 175.82 272.6 184.84 264.15L196.36 266.14Z" stroke="black" stroke-linecap="round" stroke-linejoin="round"/>
<path d="M235.72 259.29L252.33 222.06" stroke="black" stroke-linecap="round" stroke-linejoin="round"/>
<path d="M176.78 282.77C176.78 282.77 157.94 287.24 144.71 281.06C131.48 274.89 141.62 261.61 141.62 261.61C153.97 243.44 168.33 175.45 168.33 175.45C168.33 175.45 171.69 168.1 198.44 169.1" stroke="black" stroke-linecap="round" stroke-linejoin="round"/>
<path d="M184.85 264.15C184.85 264.15 161.7 259.06 152.22 262.68" stroke="black" stroke-linecap="round" stroke-linejoin="round"/>
<path d="M162.18 261.22C162.18 261.22 158.63 256.91 157.58 253.72C157.34 252.98 158.23 252.39 158.82 252.89L166.48 259.29C166.48 259.29 164.39 255.6 163.03 252.31C162.73 251.58 163.72 251.03 164.17 251.67L171.32 261.86" stroke="black" stroke-linecap="round" stroke-linejoin="round"/>
<path d="M237.58 174.32L268.18 188.08C271.32 189.49 273.23 192.71 272.97 196.14C271.75 212.1 267.73 251.68 254.03 275.08C254.03 275.08 218.22 304.1 176.77 282.77" stroke="black" stroke-linecap="round" stroke-linejoin="round"/>
<path d="M248.84 229.89L231.21 250.54L231.39 257.54" stroke="black" stroke-linecap="round" stroke-linejoin="round"/>
<path d="M198.01 219.58C198.01 219.58 201.96 205.52 207.53 197.45" stroke="black" stroke-linecap="round" stroke-linejoin="round"/>
<path d="M168.19 284.33L164.07 306.98C164.07 306.98 206.05 332.32 240.45 308.51L231.95 286.58" stroke="black" stroke-linecap="round" stroke-linejoin="round"/>
<path d="M170.74 194.62L169.07 216.71C169.07 216.71 158.63 233.74 170.74 246.79L171.33 261.87" stroke="black" stroke-linecap="round" stroke-linejoin="round"/>
<path d="M213.85 185.52C213.85 185.52 228.01 175.95 230.98 160.6C230.98 160.6 235.97 165.2 236.98 170.87C237.98 176.54 239.12 183.54 239.12 183.54L228.03 205.85C228.03 205.85 221.68 189.41 215.88 187.96" stroke="black" stroke-linecap="round" stroke-linejoin="round"/>
<path d="M207.96 159.84C207.96 159.84 202.02 166.32 203.81 182.56C203.81 182.56 192.46 189.39 188.94 196.03C188.94 196.03 195.4 166.46 207.95 159.84H207.96Z" stroke="black" stroke-linecap="round" stroke-linejoin="round"/>
<path d="M198.57 120.82H201.39" stroke="black" stroke-width="0.75" stroke-linecap="round" stroke-linejoin="round"/>
<path d="M189.2 126.1C189.2 126.1 183.79 138.6 186.16 149.63C188.54 160.66 207.95 159.84 207.95 159.84L207.32 156.67C207.32 156.67 186.93 146.92 189.19 126.1H189.2Z" fill="black"/>
<path d="M200.32 89.26C200.32 89.26 210.21 115.77 234.31 118.59" stroke="black" stroke-width="0.75" stroke-linecap="round" stroke-linejoin="round"/>
<path d="M207.33 85.36C207.33 85.36 223.89 109.45 246.1 110.31" stroke="black" stroke-width="0.75" stroke-linecap="round" stroke-linejoin="round"/>
<path d="M205.73 122.59C205.73 122.59 207.76 120.18 212.48 121.54" stroke="black" stroke-linecap="round" stroke-linejoin="round"/>
<path d="M196.76 123.81C196.76 123.81 194.32 121.49 190.73 122.59" stroke="black" stroke-linecap="round" stroke-linejoin="round"/>
<path d="M210.26 125.43C211.033 125.43 211.66 124.351 211.66 123.02C211.66 121.689 211.033 120.61 210.26 120.61C209.487 120.61 208.86 121.689 208.86 123.02C208.86 124.351 209.487 125.43 210.26 125.43Z" fill="black"/>
<path d="M196.5 124.78C196.5 125.87 195.98 126.76 195.35 126.76C194.72 126.76 194.2 125.87 194.2 124.78C194.2 123.69 194.72 122.8 195.35 122.8C195.98 122.8 196.5 123.69 196.5 124.78Z" fill="black"/>
<path d="M202.98 116.68C202.98 116.68 205.91 112.75 211.67 114.66" stroke="black" stroke-linecap="round" stroke-linejoin="round"/>
<path d="M195.35 116.68C195.35 116.68 192.15 113.76 189.56 116.12" stroke="black" stroke-linecap="round" stroke-linejoin="round"/>
</g>
<defs>
<clipPath id="clip0_0_338">
<rect width="408.2" height="394.63" fill="white"/>
</clipPath>
</defs>
</svg>
