<svg width="353" height="75" viewBox="0 0 353 75" fill="none" xmlns="http://www.w3.org/2000/svg">
<rect width="353" height="74" rx="20" fill="white"/>
<rect x="1.5" y="1.5" width="350" height="71" rx="18.5" stroke="black" stroke-opacity="0.19" stroke-width="3"/>
<path d="M46.0057 28.5455V46H43.5852L34.7131 33.1989H34.5511V46H31.9176V28.5455H34.3551L43.2358 41.3636H43.3977V28.5455H46.0057ZM63.9354 28.5455V46H61.5149L52.6428 33.1989H52.4808V46H49.8473V28.5455H52.2848L61.1655 41.3636H61.3274V28.5455H63.9354ZM81.8651 28.5455V46H79.4446L70.5724 33.1989H70.4105V46H67.777V28.5455H70.2145L79.0952 41.3636H79.2571V28.5455H81.8651ZM99.7947 28.5455V46H97.3743L88.5021 33.1989H88.3402V46H85.7067V28.5455H88.1442L97.0249 41.3636H97.1868V28.5455H99.7947ZM105.469 28.5455L109.645 35.3722H109.781L113.957 28.5455H117.009L111.571 37.2727L117.043 46H113.974L109.781 39.267H109.645L105.452 46H102.384L107.949 37.2727L102.418 28.5455H105.469ZM121.453 28.5455L125.629 35.3722H125.766L129.942 28.5455H132.993L127.555 37.2727L133.027 46H129.959L125.766 39.267H125.629L121.436 46H118.368L123.933 37.2727L118.402 28.5455H121.453ZM137.438 28.5455L141.614 35.3722H141.75L145.926 28.5455H148.977L143.54 37.2727L149.011 46H145.943L141.75 39.267H141.614L137.42 46H134.352L139.918 37.2727L134.386 28.5455H137.438ZM153.422 28.5455L157.598 35.3722H157.734L161.911 28.5455H164.962L159.524 37.2727L164.996 46H161.928L157.734 39.267H157.598L153.405 46H150.337L155.902 37.2727L150.371 28.5455H153.422ZM169.406 28.5455L173.582 35.3722H173.719L177.895 28.5455H180.946L175.509 37.2727L180.98 46H177.912L173.719 39.267H173.582L169.389 46H166.321L171.886 37.2727L166.355 28.5455H169.406ZM185.391 28.5455L189.567 35.3722H189.703L193.879 28.5455H196.93L191.493 37.2727L196.964 46H193.896L189.703 39.267H189.567L185.374 46H182.305L187.871 37.2727L182.339 28.5455H185.391ZM213.571 34.2216H210.912C210.81 33.6534 210.619 33.1534 210.341 32.7216C210.063 32.2898 209.722 31.9233 209.318 31.6222C208.915 31.321 208.463 31.0937 207.963 30.9403C207.469 30.7869 206.943 30.7102 206.386 30.7102C205.381 30.7102 204.48 30.9631 203.685 31.4688C202.895 31.9744 202.27 32.7159 201.81 33.6932C201.355 34.6705 201.128 35.8636 201.128 37.2727C201.128 38.6932 201.355 39.892 201.81 40.8693C202.27 41.8466 202.898 42.5852 203.693 43.0852C204.489 43.5852 205.384 43.8352 206.378 43.8352C206.929 43.8352 207.452 43.7614 207.946 43.6136C208.446 43.4602 208.898 43.2358 209.301 42.9403C209.705 42.6449 210.045 42.2841 210.324 41.858C210.608 41.4261 210.804 40.9318 210.912 40.375L213.571 40.3835C213.429 41.2415 213.153 42.0312 212.744 42.7528C212.341 43.4688 211.821 44.0881 211.185 44.6108C210.554 45.1278 209.832 45.5284 209.02 45.8125C208.207 46.0966 207.321 46.2386 206.361 46.2386C204.849 46.2386 203.503 45.8807 202.321 45.1648C201.139 44.4432 200.207 43.4119 199.526 42.071C198.849 40.7301 198.511 39.1307 198.511 37.2727C198.511 35.4091 198.852 33.8097 199.534 32.4744C200.216 31.1335 201.148 30.1051 202.33 29.3892C203.511 28.6676 204.855 28.3068 206.361 28.3068C207.287 28.3068 208.151 28.4403 208.952 28.7074C209.759 28.9687 210.483 29.3551 211.125 29.8665C211.767 30.3722 212.298 30.9915 212.719 31.7244C213.139 32.4517 213.423 33.2841 213.571 34.2216ZM231.219 34.2216H228.56C228.458 33.6534 228.268 33.1534 227.989 32.7216C227.711 32.2898 227.37 31.9233 226.967 31.6222C226.563 31.321 226.112 31.0937 225.612 30.9403C225.117 30.7869 224.592 30.7102 224.035 30.7102C223.029 30.7102 222.129 30.9631 221.333 31.4688C220.543 31.9744 219.918 32.7159 219.458 33.6932C219.004 34.6705 218.776 35.8636 218.776 37.2727C218.776 38.6932 219.004 39.892 219.458 40.8693C219.918 41.8466 220.546 42.5852 221.342 43.0852C222.137 43.5852 223.032 43.8352 224.026 43.8352C224.577 43.8352 225.1 43.7614 225.594 43.6136C226.094 43.4602 226.546 43.2358 226.95 42.9403C227.353 42.6449 227.694 42.2841 227.972 41.858C228.256 41.4261 228.452 40.9318 228.56 40.375L231.219 40.3835C231.077 41.2415 230.802 42.0312 230.393 42.7528C229.989 43.4688 229.469 44.0881 228.833 44.6108C228.202 45.1278 227.481 45.5284 226.668 45.8125C225.856 46.0966 224.969 46.2386 224.009 46.2386C222.498 46.2386 221.151 45.8807 219.969 45.1648C218.788 44.4432 217.856 43.4119 217.174 42.071C216.498 40.7301 216.16 39.1307 216.16 37.2727C216.16 35.4091 216.501 33.8097 217.183 32.4744C217.864 31.1335 218.796 30.1051 219.978 29.3892C221.16 28.6676 222.504 28.3068 224.009 28.3068C224.935 28.3068 225.799 28.4403 226.6 28.7074C227.407 28.9687 228.131 29.3551 228.773 29.8665C229.415 30.3722 229.947 30.9915 230.367 31.7244C230.788 32.4517 231.072 33.2841 231.219 34.2216Z" fill="black" fill-opacity="0.51"/>
<rect x="262" y="1" width="91" height="74" rx="20" fill="black"/>
<path d="M307.808 39.1705C309.695 39.1705 311.539 38.611 313.108 37.5626C314.677 36.5143 315.9 35.0242 316.622 33.2808C317.345 31.5375 317.533 29.6191 317.165 27.7684C316.797 25.9176 315.889 24.2176 314.554 22.8833C313.22 21.549 311.52 20.6403 309.669 20.2722C307.818 19.9041 305.9 20.093 304.157 20.8151C302.413 21.5372 300.923 22.7601 299.875 24.3291C298.827 25.8981 298.267 27.7427 298.267 29.6297C298.267 32.1601 299.272 34.5868 301.061 36.3761C302.851 38.1653 305.277 39.1705 307.808 39.1705ZM307.808 22.8148C309.156 22.8148 310.473 23.2145 311.594 23.9633C312.715 24.7122 313.588 25.7765 314.104 27.0218C314.62 28.267 314.755 29.6373 314.492 30.9592C314.229 32.2812 313.58 33.4955 312.627 34.4486C311.674 35.4016 310.459 36.0507 309.137 36.3136C307.815 36.5766 306.445 36.4416 305.2 35.9258C303.955 35.41 302.89 34.5365 302.141 33.4158C301.393 32.2951 300.993 30.9776 300.993 29.6297C300.993 27.8223 301.711 26.0889 302.989 24.8109C304.267 23.5328 306 22.8148 307.808 22.8148ZM324.164 49.1475C323.413 46.5378 321.837 44.2416 319.671 42.6034C317.505 40.9652 314.867 40.0731 312.151 40.061H303.483C300.768 40.0761 298.131 40.9692 295.966 42.607C293.8 44.2448 292.223 46.5393 291.47 49.1475H291.452C291.238 49.8912 291.2 50.6744 291.34 51.4353C291.481 52.1963 291.796 52.9143 292.261 53.5327C292.726 54.1511 293.329 54.653 294.021 54.999C294.713 55.3449 295.476 55.5254 296.25 55.5262H319.329C320.106 55.5311 320.874 55.3547 321.57 55.0112C322.267 54.6677 322.874 54.1664 323.344 53.5472C323.813 52.9281 324.131 52.208 324.274 51.4443C324.416 50.6805 324.378 49.8941 324.164 49.1475ZM321.183 51.8916C320.972 52.1738 320.697 52.4028 320.382 52.5605C320.066 52.7182 319.719 52.8003 319.366 52.8003H296.268C295.917 52.7995 295.572 52.7175 295.258 52.5608C294.944 52.4042 294.671 52.177 294.46 51.8971C294.249 51.6173 294.105 51.2923 294.041 50.9477C293.976 50.6031 293.992 50.2482 294.087 49.9108C294.677 47.8725 295.911 46.0801 297.605 44.8023C299.298 43.5246 301.361 42.8302 303.483 42.8233H312.133C314.258 42.8284 316.323 43.5242 318.018 44.806C319.713 46.0877 320.945 47.8858 321.528 49.929C321.623 50.262 321.639 50.6124 321.576 50.9527C321.513 51.2931 321.372 51.6144 321.165 51.8916H321.183Z" fill="white"/>
</svg>
