<svg width="24" height="24" viewBox="0 0 24 24" fill="none" xmlns="http://www.w3.org/2000/svg">
<path d="M1.96281 11.874L6.79281 13.5142L18.2611 6.50322C18.4276 6.40197 18.5978 6.62772 18.4546 6.75972L9.77256 14.751L9.45006 19.2247C9.4448 19.2997 9.46243 19.3744 9.50064 19.4391C9.53884 19.5038 9.59581 19.5553 9.66398 19.5869C9.73216 19.6185 9.80831 19.6286 9.88236 19.6159C9.9564 19.6031 10.0248 19.5682 10.0786 19.5157L12.7516 16.887L17.6386 20.586C18.1651 20.985 18.9278 20.7037 19.0696 20.0587L22.4723 4.60872C22.6666 3.72747 21.8026 2.98347 20.9603 3.30597L1.93881 10.59C1.34181 10.8187 1.35831 11.6685 1.96281 11.874Z" fill="white"/>
</svg>
