<svg width="405" height="50" viewBox="0 0 405 50" fill="none" xmlns="http://www.w3.org/2000/svg">
<circle cx="19" cy="25" r="16" fill="black"/>
<path d="M19.014 7.79346C15.5666 7.79346 12.1966 8.80277 9.33026 10.6938C6.46387 12.5848 4.2298 15.2725 2.91055 18.4171C1.59129 21.5617 1.24612 25.022 1.91866 28.3603C2.59121 31.6986 4.25128 34.765 6.68894 37.1718C9.1266 39.5786 12.2324 41.2176 15.6135 41.8817C18.9946 42.5457 22.4993 42.2049 25.6842 40.9024C28.8692 39.5998 31.5914 37.394 33.5067 34.564C35.4219 31.7339 36.4442 28.4066 36.4442 25.0029C36.4387 20.4403 34.6006 16.0662 31.333 12.8399C28.0654 9.6137 23.6351 7.79884 19.014 7.79346ZM25.7357 29.4289C25.887 29.5732 26.0078 29.7458 26.0908 29.9367C26.1739 30.1276 26.2176 30.3329 26.2194 30.5406C26.2212 30.7483 26.1811 30.9543 26.1015 31.1466C26.0218 31.3389 25.9041 31.5136 25.7553 31.6605C25.6066 31.8073 25.4296 31.9235 25.2349 32.0022C25.0402 32.0808 24.8315 32.1204 24.6211 32.1186C24.4107 32.1168 24.2028 32.0737 24.0095 31.9917C23.8161 31.9097 23.6413 31.7905 23.4951 31.6411L19.014 27.2151L14.5328 31.6411C14.234 31.926 13.8337 32.0837 13.4182 32.0802C13.0028 32.0766 12.6053 31.9121 12.3115 31.622C12.0178 31.3319 11.8511 30.9395 11.8475 30.5293C11.8439 30.1191 12.0036 29.7239 12.2922 29.4289L16.7734 25.0029L12.2922 20.5769C12.1409 20.4326 12.0202 20.26 11.9371 20.0691C11.8541 19.8782 11.8104 19.673 11.8086 19.4652C11.8067 19.2575 11.8468 19.0515 11.9265 18.8592C12.0062 18.6669 12.1238 18.4923 12.2726 18.3454C12.4214 18.1985 12.5983 18.0823 12.793 18.0036C12.9878 17.925 13.1964 17.8854 13.4068 17.8872C13.6172 17.889 13.8252 17.9322 14.0185 18.0141C14.2118 18.0961 14.3866 18.2153 14.5328 18.3648L19.014 22.7907L23.4951 18.3648C23.6413 18.2153 23.8161 18.0961 24.0095 18.0141C24.2028 17.9322 24.4107 17.889 24.6211 17.8872C24.8315 17.8854 25.0402 17.925 25.2349 18.0036C25.4296 18.0823 25.6066 18.1985 25.7553 18.3454C25.9041 18.4923 26.0218 18.6669 26.1015 18.8592C26.1811 19.0515 26.2212 19.2575 26.2194 19.4652C26.2176 19.673 26.1739 19.8782 26.0908 20.0691C26.0078 20.26 25.887 20.4326 25.7357 20.5769L21.2545 25.0029L25.7357 29.4289Z" fill="#FF3131"/>
<circle cx="57" cy="25" r="16" fill="black"/>
<path d="M57.0442 7.79492C53.5969 7.79492 50.2269 8.80424 47.3605 10.6952C44.4941 12.5862 42.2601 15.274 40.9408 18.4186C39.6216 21.5632 39.2764 25.0235 39.9489 28.3618C40.6215 31.7001 42.2816 34.7665 44.7192 37.1733C47.1569 39.5801 50.2626 41.2191 53.6438 41.8831C57.0249 42.5472 60.5295 42.2064 63.7145 40.9038C66.8995 39.6013 69.6217 37.3955 71.537 34.5654C73.4522 31.7353 74.4745 28.4081 74.4745 25.0044C74.469 20.4418 72.6309 16.0676 69.3633 12.8414C66.0956 9.61517 61.6654 7.8003 57.0442 7.79492ZM62.9182 30.804C62.6211 31.0973 62.2181 31.262 61.7979 31.262C61.3778 31.262 60.9748 31.0973 60.6777 30.804L55.924 26.1105C55.6268 25.8171 55.4598 25.4193 55.4597 25.0044V15.6174C55.4597 15.2025 55.6266 14.8045 55.9238 14.5111C56.221 14.2177 56.624 14.0529 57.0442 14.0529C57.4645 14.0529 57.8675 14.2177 58.1647 14.5111C58.4619 14.8045 58.6288 15.2025 58.6288 15.6174V24.3567L62.9182 28.5918C63.2153 28.8851 63.3822 29.283 63.3822 29.6979C63.3822 30.1127 63.2153 30.5106 62.9182 30.804Z" fill="#FDE151"/>
<circle cx="95" cy="25" r="16" fill="black"/>
<path fill-rule="evenodd" clip-rule="evenodd" d="M95.074 7.79492C99.7256 7.87643 104.158 9.72539 107.418 12.9439C110.678 16.1624 112.504 20.4933 112.504 25.0044C112.504 29.5155 110.678 33.8463 107.418 37.0648C104.158 40.2834 99.7256 42.1323 95.074 42.2138C90.4225 42.1323 85.9899 40.2834 82.73 37.0648C79.4702 33.8463 77.6438 29.5155 77.6438 25.0044C77.6438 20.4933 79.4702 16.1624 82.73 12.9439C85.9899 9.72539 90.4225 7.87643 95.074 7.79492ZM91.3882 30.5948L87.0418 26.3764C86.686 26.0303 86.4862 25.5615 86.4862 25.0727C86.4862 24.584 86.686 24.1152 87.0418 23.769C87.3994 23.4244 87.8831 23.231 88.3872 23.231C88.8914 23.231 89.3751 23.4244 89.7327 23.769L92.7945 26.7417L100.415 19.3522C100.772 19.0072 101.256 18.8135 101.76 18.8135C102.264 18.8135 102.747 19.0072 103.104 19.3522C103.46 19.6986 103.659 20.1673 103.659 20.6559C103.659 21.1445 103.46 21.6132 103.104 21.9596L94.1371 30.6547C93.9551 30.8303 93.7383 30.9684 93.4999 31.0608C93.2615 31.1532 93.0062 31.198 92.7495 31.1924C92.4928 31.1868 92.2399 31.131 92.006 31.0283C91.772 30.9256 91.5619 30.7781 91.3882 30.5948Z" fill="#00BA00"/>
<path d="M162.446 19.3125H154.98C154.844 18.3466 154.565 17.4886 154.145 16.7386C153.724 15.9773 153.185 15.3295 152.526 14.7955C151.867 14.2614 151.105 13.8523 150.242 13.5682C149.389 13.2841 148.463 13.142 147.463 13.142C145.656 13.142 144.082 13.5909 142.742 14.4886C141.401 15.375 140.361 16.6705 139.622 18.375C138.884 20.0682 138.514 22.125 138.514 24.5455C138.514 27.0341 138.884 29.125 139.622 30.8182C140.372 32.5114 141.418 33.7898 142.759 34.6534C144.099 35.517 145.651 35.9489 147.412 35.9489C148.401 35.9489 149.315 35.8182 150.156 35.5568C151.009 35.2955 151.764 34.9148 152.423 34.4148C153.082 33.9034 153.628 33.2841 154.06 32.5568C154.503 31.8295 154.81 31 154.98 30.0682L162.446 30.1023C162.253 31.7045 161.77 33.25 160.997 34.7386C160.236 36.2159 159.207 37.5398 157.912 38.7102C156.628 39.8693 155.094 40.7898 153.31 41.4716C151.537 42.142 149.531 42.4773 147.293 42.4773C144.179 42.4773 141.395 41.7727 138.94 40.3636C136.497 38.9545 134.565 36.9148 133.145 34.2443C131.736 31.5739 131.031 28.3409 131.031 24.5455C131.031 20.7386 131.747 17.5 133.179 14.8295C134.611 12.1591 136.554 10.125 139.009 8.72727C141.463 7.31818 144.224 6.61364 147.293 6.61364C149.315 6.61364 151.19 6.89773 152.918 7.46591C154.656 8.03409 156.196 8.86364 157.537 9.95454C158.878 11.0341 159.969 12.358 160.81 13.9261C161.662 15.4943 162.207 17.2898 162.446 19.3125ZM167.739 42V7.09091H181.716C184.284 7.09091 186.426 7.47159 188.142 8.23295C189.858 8.99432 191.148 10.0511 192.011 11.4034C192.875 12.7443 193.307 14.2898 193.307 16.0398C193.307 17.4034 193.034 18.6023 192.489 19.6364C191.943 20.6591 191.193 21.5 190.239 22.1591C189.295 22.8068 188.216 23.267 187 23.5398V23.8807C188.33 23.9375 189.574 24.3125 190.733 25.0057C191.903 25.6989 192.852 26.6705 193.58 27.9205C194.307 29.1591 194.671 30.6364 194.671 32.3523C194.671 34.2045 194.21 35.858 193.29 37.3125C192.381 38.7557 191.034 39.8977 189.25 40.7386C187.466 41.5795 185.267 42 182.653 42H167.739ZM175.119 35.9659H181.136C183.193 35.9659 184.693 35.5739 185.636 34.7898C186.58 33.9943 187.051 32.9375 187.051 31.6193C187.051 30.6534 186.818 29.8011 186.352 29.0625C185.886 28.3239 185.222 27.7443 184.358 27.3239C183.506 26.9034 182.489 26.6932 181.307 26.6932H175.119V35.9659ZM175.119 21.6989H180.591C181.602 21.6989 182.5 21.5227 183.284 21.1705C184.08 20.8068 184.705 20.2955 185.159 19.6364C185.625 18.9773 185.858 18.1875 185.858 17.267C185.858 16.0057 185.409 14.9886 184.511 14.2159C183.625 13.4432 182.364 13.0568 180.727 13.0568H175.119V21.6989ZM199.473 42V7.09091H222.996V13.1761H206.854V21.4943H221.786V27.5795H206.854V35.9148H223.064V42H199.473ZM227.534 13.1761V7.09091H256.205V13.1761H245.517V42H238.222V13.1761H227.534ZM291.412 24.5455C291.412 28.3523 290.69 31.5909 289.247 34.2614C287.815 36.9318 285.861 38.9716 283.384 40.3807C280.918 41.7784 278.145 42.4773 275.065 42.4773C271.963 42.4773 269.179 41.7727 266.713 40.3636C264.247 38.9545 262.298 36.9148 260.867 34.2443C259.435 31.5739 258.719 28.3409 258.719 24.5455C258.719 20.7386 259.435 17.5 260.867 14.8295C262.298 12.1591 264.247 10.125 266.713 8.72727C269.179 7.31818 271.963 6.61364 275.065 6.61364C278.145 6.61364 280.918 7.31818 283.384 8.72727C285.861 10.125 287.815 12.1591 289.247 14.8295C290.69 17.5 291.412 20.7386 291.412 24.5455ZM283.929 24.5455C283.929 22.0795 283.56 20 282.821 18.3068C282.094 16.6136 281.065 15.3295 279.736 14.4545C278.406 13.5795 276.849 13.142 275.065 13.142C273.281 13.142 271.724 13.5795 270.395 14.4545C269.065 15.3295 268.031 16.6136 267.293 18.3068C266.565 20 266.202 22.0795 266.202 24.5455C266.202 27.0114 266.565 29.0909 267.293 30.7841C268.031 32.4773 269.065 33.7614 270.395 34.6364C271.724 35.5114 273.281 35.9489 275.065 35.9489C276.849 35.9489 278.406 35.5114 279.736 34.6364C281.065 33.7614 282.094 32.4773 282.821 30.7841C283.56 29.0909 283.929 27.0114 283.929 24.5455ZM310.686 10.8409H318.493C321.288 10.8409 323.766 11.4318 325.925 12.6136C328.095 13.7955 329.794 15.4602 331.021 17.608C332.26 19.7443 332.879 22.2557 332.879 25.142C332.879 27.9375 332.26 30.375 331.021 32.4545C329.794 34.5341 328.095 36.1534 325.925 37.3125C323.766 38.4602 321.288 39.0341 318.493 39.0341H310.686C307.879 39.0341 305.391 38.4659 303.22 37.3295C301.05 36.1818 299.345 34.5682 298.107 32.4886C296.879 30.4091 296.266 27.9545 296.266 25.125C296.266 22.2386 296.885 19.7273 298.124 17.5909C299.374 15.4432 301.084 13.7841 303.254 12.6136C305.425 11.4318 307.902 10.8409 310.686 10.8409ZM310.686 17.0114C309.186 17.0114 307.862 17.3125 306.715 17.9148C305.578 18.5057 304.692 19.4034 304.055 20.608C303.419 21.8125 303.101 23.3182 303.101 25.125C303.101 26.8523 303.425 28.2898 304.072 29.4375C304.732 30.5852 305.629 31.4432 306.766 32.0114C307.902 32.5795 309.209 32.8636 310.686 32.8636H318.544C320.033 32.8636 321.334 32.5739 322.447 31.9943C323.572 31.4148 324.442 30.5511 325.055 29.4034C325.68 28.2557 325.993 26.8352 325.993 25.142C325.993 23.3352 325.68 21.8295 325.055 20.625C324.442 19.4205 323.572 18.517 322.447 17.9148C321.334 17.3125 320.033 17.0114 318.544 17.0114H310.686ZM318.084 6.47727V43.4318H311.078V6.47727H318.084ZM370.396 24.5455C370.396 28.3523 369.675 31.5909 368.232 34.2614C366.8 36.9318 364.845 38.9716 362.368 40.3807C359.902 41.7784 357.129 42.4773 354.05 42.4773C350.947 42.4773 348.163 41.7727 345.697 40.3636C343.232 38.9545 341.283 36.9148 339.851 34.2443C338.419 31.5739 337.703 28.3409 337.703 24.5455C337.703 20.7386 338.419 17.5 339.851 14.8295C341.283 12.1591 343.232 10.125 345.697 8.72727C348.163 7.31818 350.947 6.61364 354.05 6.61364C357.129 6.61364 359.902 7.31818 362.368 8.72727C364.845 10.125 366.8 12.1591 368.232 14.8295C369.675 17.5 370.396 20.7386 370.396 24.5455ZM362.913 24.5455C362.913 22.0795 362.544 20 361.805 18.3068C361.078 16.6136 360.05 15.3295 358.72 14.4545C357.391 13.5795 355.834 13.142 354.05 13.142C352.266 13.142 350.709 13.5795 349.379 14.4545C348.05 15.3295 347.016 16.6136 346.277 18.3068C345.55 20 345.186 22.0795 345.186 24.5455C345.186 27.0114 345.55 29.0909 346.277 30.7841C347.016 32.4773 348.05 33.7614 349.379 34.6364C350.709 35.5114 352.266 35.9489 354.05 35.9489C355.834 35.9489 357.391 35.5114 358.72 34.6364C360.05 33.7614 361.078 32.4773 361.805 30.7841C362.544 29.0909 362.913 27.0114 362.913 24.5455ZM375.864 42V7.09091H389.636C392.284 7.09091 394.54 7.59659 396.403 8.60795C398.267 9.60795 399.688 11 400.665 12.7841C401.653 14.5568 402.148 16.6023 402.148 18.9205C402.148 21.2386 401.648 23.2841 400.648 25.0568C399.648 26.8295 398.199 28.2102 396.301 29.1989C394.415 30.1875 392.131 30.6818 389.449 30.6818H380.67V24.767H388.256C389.676 24.767 390.847 24.5227 391.767 24.0341C392.699 23.5341 393.392 22.8466 393.847 21.9716C394.313 21.0852 394.545 20.0682 394.545 18.9205C394.545 17.7614 394.313 16.75 393.847 15.8864C393.392 15.0114 392.699 14.3352 391.767 13.858C390.835 13.3693 389.653 13.125 388.222 13.125H383.244V42H375.864Z" fill="black"/>
</svg>
