<svg width="200" height="33" viewBox="0 0 200 33" fill="none" xmlns="http://www.w3.org/2000/svg">
<path d="M89.4262 9.52547L93.5954 6.42029H79.6377V25.0211H93.5954V21.9158H83.6257V17.1667H92.1453V14.0615H83.6257V9.52547H89.4262Z" fill="#21A038"/>
<path d="M69.0942 13.6657H64.2604V9.52547H71.9946L76.1637 6.42029H60.2725V25.0211H68.5806C73.2332 25.0211 75.922 22.89 75.922 19.1759C75.922 15.6141 73.5051 13.6657 69.0942 13.6657ZM68.4295 21.9158H64.2604V16.7709H68.4295C70.9674 16.7709 72.1457 17.6233 72.1457 19.3586C72.1457 21.0939 70.8767 21.9158 68.4295 21.9158Z" fill="#21A038"/>
<path d="M104.894 6.42029H97.3112V25.0211H101.299V19.7543H104.924C109.758 19.7543 112.779 17.1971 112.779 13.0873C112.779 8.97749 109.758 6.42029 104.894 6.42029ZM104.804 16.6491H101.269V9.52547H104.804C107.372 9.52547 108.761 10.8041 108.761 13.0873C108.761 15.3705 107.372 16.6491 104.804 16.6491Z" fill="#21A038"/>
<path d="M53.4443 21.0032C52.387 21.5816 51.2087 21.8861 50.0002 21.8861C46.4051 21.8861 43.8068 19.2984 43.8068 15.7366C43.8068 12.1748 46.4051 9.58712 50.0002 9.58712C51.2992 9.55667 52.5682 9.98287 53.6256 10.744L56.4957 8.61293L56.3144 8.43027C54.6528 6.93856 52.4171 6.17749 49.8794 6.17749C47.1301 6.17749 44.6225 7.12122 42.8099 8.82603C40.9971 10.5917 39.9699 13.0576 40.0305 15.6148C40.0002 18.2025 40.9971 20.6989 42.8099 22.5253C44.7132 24.3216 47.2509 25.3261 49.8491 25.2653C52.7192 25.2653 55.2268 24.2607 56.9186 22.4341L54.3507 20.5162L53.4443 21.0032Z" fill="#21A038"/>
<path d="M160.724 6.45073V25.0514H164.712V17.4407H173.201V25.0514H177.189V6.45073H173.201V14.0919H164.712V6.45073H160.724ZM153.866 25.0514H158.065L150.271 6.45073H146.222L138.277 25.0514H142.295L143.896 21.3069H152.355L153.866 25.0514ZM145.105 18.2017L148.186 10.7432L151.086 18.2017H145.105ZM186.132 17.532H188.609L194.711 25.0211H199.847L191.691 15.401L198.82 6.42029H194.259L188.337 14.3964H186.132V6.42029H182.144V25.0211H186.132V17.532ZM125.105 13.6962V9.55592H135.527V6.45073H121.117V25.0514H129.425C134.077 25.0514 136.766 22.9205 136.766 19.2064C136.766 15.6445 134.349 13.6962 129.938 13.6962H125.105ZM125.105 21.9463V16.8014H129.274C131.811 16.8014 132.99 17.6538 132.99 19.389C132.99 21.1244 131.751 21.9766 129.274 21.9766H125.105V21.9463Z" fill="#21A038"/>
<path d="M27.5526 6.30078C28.2776 7.24453 28.8819 8.2796 29.3955 9.37554L15.4378 19.7565L9.57678 16.0426V11.5979L15.4076 15.2815L27.5526 6.30078Z" fill="#21A038"/>
<path d="M3.62544 15.7372C3.62544 15.5241 3.62544 15.3414 3.65566 15.1283L0.12091 14.9457C0.12091 15.1892 0.0906982 15.4632 0.0906982 15.7068C0.0906982 19.9688 1.81275 23.835 4.5922 26.6358L7.09975 24.109C4.95474 21.978 3.62544 19.0251 3.62544 15.7372Z" fill="url(#paint0_linear_0_67)"/>
<path d="M15.4084 3.86469C15.6198 3.86469 15.8011 3.86469 16.0126 3.89514L16.1939 0.333299C15.9522 0.333299 15.6803 0.302856 15.4386 0.302856C11.209 0.302856 7.37211 2.03811 4.59265 4.83887L7.1002 7.36564C9.215 5.20419 12.1757 3.86469 15.4084 3.86469Z" fill="url(#paint1_linear_0_67)"/>
<path d="M15.4079 27.6096C15.1965 27.6096 15.0152 27.6096 14.8037 27.5791L14.6224 31.1411C14.8641 31.1411 15.136 31.1714 15.3777 31.1714C19.6073 31.1714 23.4441 29.4362 26.2236 26.6354L23.716 24.1086C21.6012 26.3005 18.6708 27.6096 15.4079 27.6096Z" fill="url(#paint2_linear_0_67)"/>
<path d="M22.0548 5.93646L25.0457 3.71411C22.4174 1.5831 19.0639 0.274048 15.4083 0.274048V3.83588C17.8857 3.86633 20.1818 4.6274 22.0548 5.93646Z" fill="url(#paint3_linear_0_67)"/>
<path d="M30.7547 15.7382C30.7547 14.7945 30.664 13.8812 30.5129 12.9679L27.2199 15.4338C27.2199 15.5251 27.2199 15.6469 27.2199 15.7382C27.2199 19.2392 25.7092 22.3749 23.3226 24.5362L25.7092 27.1848C28.7908 24.384 30.7547 20.2743 30.7547 15.7382Z" fill="#21A038"/>
<path d="M15.4086 27.6108C11.9343 27.6108 8.82249 26.0886 6.67748 23.6836L4.04907 26.0886C6.85874 29.2242 10.9071 31.1725 15.4086 31.1725V27.6108Z" fill="url(#paint4_linear_0_67)"/>
<path d="M7.52223 6.93994L5.13554 4.29138C2.02375 7.12259 0.09021 11.202 0.09021 15.738H3.62495C3.62495 12.2675 5.13554 9.1014 7.52223 6.93994Z" fill="url(#paint5_linear_0_67)"/>
<defs>
<linearGradient id="paint0_linear_0_67" x1="4.21502" y1="26.2024" x2="0.605868" y2="15.69" gradientUnits="userSpaceOnUse">
<stop offset="0.1444" stop-color="#F2E913"/>
<stop offset="0.3037" stop-color="#E7E518"/>
<stop offset="0.5823" stop-color="#CADB26"/>
<stop offset="0.891" stop-color="#A3CD39"/>
</linearGradient>
<linearGradient id="paint1_linear_0_67" x1="5.60022" y1="4.43695" x2="14.7629" y2="0.918468" gradientUnits="userSpaceOnUse">
<stop offset="0.0592" stop-color="#0FA8E0"/>
<stop offset="0.5385" stop-color="#0099F9"/>
<stop offset="0.9234" stop-color="#0291EB"/>
</linearGradient>
<linearGradient id="paint2_linear_0_67" x1="14.4149" y1="28.1422" x2="25.3381" y2="25.6547" gradientUnits="userSpaceOnUse">
<stop offset="0.1226" stop-color="#A3CD39"/>
<stop offset="0.2846" stop-color="#86C339"/>
<stop offset="0.8693" stop-color="#21A038"/>
</linearGradient>
<linearGradient id="paint3_linear_0_67" x1="14.6821" y1="2.54268" x2="23.764" y2="5.36635" gradientUnits="userSpaceOnUse">
<stop offset="0.0566" stop-color="#0291EB"/>
<stop offset="0.79" stop-color="#0C8ACB"/>
</linearGradient>
<linearGradient id="paint4_linear_0_67" x1="4.94783" y1="26.6529" x2="14.7028" y2="30.3257" gradientUnits="userSpaceOnUse">
<stop offset="0.1324" stop-color="#F2E913"/>
<stop offset="0.2977" stop-color="#EBE716"/>
<stop offset="0.5306" stop-color="#D9E01F"/>
<stop offset="0.8023" stop-color="#BBD62D"/>
<stop offset="0.9829" stop-color="#A3CD39"/>
</linearGradient>
<linearGradient id="paint5_linear_0_67" x1="2.7986" y1="16.1682" x2="6.70043" y2="5.94033" gradientUnits="userSpaceOnUse">
<stop offset="0.0698" stop-color="#A3CD39"/>
<stop offset="0.2599" stop-color="#81C55F"/>
<stop offset="0.9216" stop-color="#0FA8E0"/>
</linearGradient>
</defs>
</svg>
