<svg width="118" height="56" viewBox="0 0 118 56" fill="none" xmlns="http://www.w3.org/2000/svg">
<g clip-path="url(#clip0_0_82)">
<path d="M0.5 0H56.34V55.84H0.5V0Z" fill="#011689"/>
<path d="M37.3101 40.5969C36.7701 40.7349 36.6381 40.9519 36.7321 41.0849C36.8281 41.2119 37.3101 41.1149 37.5621 40.9979C37.8181 40.8779 37.8801 40.7349 37.7931 40.6029C37.7231 40.4979 37.3931 40.5769 37.3101 40.5969ZM33.0271 15.4069C33.2981 15.4289 33.2771 15.4219 33.3861 15.4409C33.4491 15.3509 33.9261 14.6559 33.9681 14.5109C34.0171 14.3709 33.9031 14.2629 33.7941 14.2569C33.6871 14.2509 33.4731 14.2629 33.3281 14.3959C33.1731 14.5359 33.0771 15.1649 33.0271 15.4069ZM41.2171 23.9049C40.6351 23.6919 40.0371 23.8099 39.4611 24.0389L39.4061 24.1609C39.2961 24.3989 39.1431 24.5809 38.9761 24.7249C39.2761 24.9409 39.9661 25.1529 40.7111 25.1289C41.4601 25.1119 42.1091 24.5789 42.1091 24.5789C41.9591 24.3649 41.8051 24.1189 41.2171 23.9049ZM40.1701 27.1749C39.9431 26.7749 39.2861 26.7009 38.7321 26.2599L38.6961 26.3759L38.5711 26.4059C38.2036 26.4976 37.8195 26.4996 37.4511 26.4119C37.4891 26.5019 37.5191 26.6359 37.5331 26.7069C37.9161 27.1769 38.4581 27.5069 39.1771 27.5909C39.8931 27.6709 40.1701 27.1749 40.1701 27.1749ZM38.8031 23.5719C39.1681 23.6919 39.5001 23.7519 40.4031 23.5219C41.3631 23.2719 41.5001 22.5479 41.5001 22.5479C41.0791 22.2769 40.5371 22.2799 40.2621 22.3849C39.9861 22.4849 39.3601 22.4849 39.0941 22.4249C39.0025 22.8329 38.7827 23.2008 38.4671 23.4749C38.5931 23.4999 38.7031 23.5349 38.8031 23.5719ZM39.5751 35.0819C40.1461 34.5669 40.5071 34.0389 40.1711 33.6829C39.8371 33.3259 39.2711 33.6359 38.6971 34.1499C38.1251 34.6639 37.7651 35.1909 38.0981 35.5459C38.4081 35.8779 39.0031 35.5959 39.5751 35.0819ZM38.1301 33.6459C38.8501 32.3979 37.9821 30.7259 37.2561 29.5619C37.1638 29.5273 37.0736 29.4872 36.9861 29.4419C37.2401 30.3379 37.7241 31.4029 37.5251 32.2239C36.8921 31.4869 36.7051 29.2779 36.7051 29.2779C36.5768 29.1954 36.4548 29.1034 36.3401 29.0029C36.3401 29.0809 36.3361 29.1659 36.3301 29.2489C36.4181 30.5799 36.5291 31.9479 36.9511 32.6299C37.3671 33.2999 38.1301 33.6459 38.1301 33.6459ZM36.5831 28.9229C36.9951 29.2439 37.5501 29.5499 38.1621 29.4589C38.1621 29.4589 38.3031 29.0089 37.0841 27.9049C36.7396 27.8638 36.4107 27.7377 36.1271 27.5379C36.0771 27.6789 35.9941 27.8679 36.0551 28.1379C36.1151 28.4099 36.3051 28.7069 36.5831 28.9229ZM41.0001 21.6329C41.5241 21.1669 41.9741 20.0169 41.9741 20.0169C41.4921 20.0769 40.5541 20.4889 39.9861 20.7999C39.4641 21.0879 38.7331 21.6899 38.4231 21.9129C38.7891 21.9409 39.0031 22.0699 39.0221 22.0809L39.1461 22.1599C40.0781 22.2939 40.4581 22.1139 41.0001 21.6339V21.6329ZM38.8501 28.9479L38.8221 28.9449C38.6102 28.9505 38.3992 28.9177 38.1991 28.8479C38.2541 28.9419 38.2961 29.0279 38.3241 29.1019C40.3221 30.9259 40.1501 31.8259 40.1501 31.8259C39.4691 31.4379 38.7141 30.3259 38.3331 29.6489L38.1951 29.6689C38.0312 29.6949 37.8645 29.6972 37.7001 29.6759C37.9601 29.9159 38.3401 30.5939 38.9611 31.6679C39.5771 32.7449 41.0801 33.2039 41.0801 33.2039C41.2341 31.3799 39.6151 29.6969 38.8501 28.9479ZM38.6001 27.6529C38.1101 27.3329 37.8801 27.2709 37.5461 27.1529C37.4971 27.5529 37.3011 27.8049 37.2851 27.8259C37.4291 27.9919 37.9451 28.8559 39.0261 28.7129C39.0261 28.7129 39.3141 28.1229 38.6001 27.6529ZM35.8661 21.6529C35.4831 21.9089 35.0611 22.4399 35.3821 23.1869C35.7021 23.9349 36.3081 24.9949 35.9451 25.4089C35.5841 25.8229 34.2971 26.0379 33.2491 25.6269C33.2491 25.6269 33.0301 26.2729 32.6491 26.6869C32.6491 26.6869 32.8271 27.0439 33.4321 26.8649C33.4321 26.8649 33.2111 27.3949 33.5121 27.9669C33.5121 27.9669 34.2161 27.8469 34.5161 27.2189C34.5161 27.2189 34.7981 27.7079 35.3631 27.8869C35.3631 27.8869 35.8271 27.6529 35.7251 26.7439C35.7251 26.7439 36.0651 27.5539 37.1131 27.6889C37.1131 27.6889 37.7161 26.9439 36.9311 25.9389C36.9311 25.9389 37.4941 26.4319 38.5201 26.1949C38.5201 26.1949 38.6801 25.6849 37.7531 24.9769C37.7531 24.9769 38.8031 24.9369 39.2061 24.0719C39.2061 24.0719 38.7611 23.5389 37.6771 23.6589C37.6771 23.6589 38.6811 23.4419 38.9021 22.2629C38.9021 22.2629 38.1781 21.8099 37.0331 22.5369C37.0331 22.5369 37.2331 22.1649 37.7151 21.7919C38.1981 21.4159 38.7831 20.3749 38.5791 18.8419C38.1981 19.6659 37.5711 20.5119 35.8661 21.6529ZM35.8531 13.6179C36.0831 13.6779 36.1331 13.6619 36.2431 13.6509C36.2554 13.5758 36.2503 13.4988 36.2281 13.4259C36.2281 13.4259 35.6831 12.9059 35.2241 12.8169C35.1268 12.7954 35.026 12.7964 34.9292 12.82C34.8325 12.8436 34.7424 12.889 34.6661 12.9529C34.6661 12.9529 34.8291 12.9379 35.0741 13.1329C35.3191 13.3259 35.6221 13.5609 35.8531 13.6179ZM34.8681 15.1579C34.8581 15.3009 34.7551 15.4509 34.6351 15.5729C34.6351 15.5729 35.3041 15.4189 35.3841 15.0139C35.4581 14.6539 35.3021 14.4009 35.1921 14.2009C35.0921 14.0109 34.7831 13.5739 34.7061 13.3909C34.6361 13.2249 34.5971 13.0859 34.6221 12.9939C34.4181 13.1949 34.2451 13.4069 34.2491 13.5939C34.2511 13.7829 34.4791 14.2629 34.5971 14.4449C34.7171 14.6279 34.8901 14.8669 34.8681 15.1579ZM36.1691 14.4919C35.9891 14.8379 35.9041 15.4099 36.0551 15.8049C36.1751 16.1249 36.2711 16.5799 36.2791 16.7229C36.5291 16.3579 36.6091 15.9679 36.5571 15.6019C36.5261 15.3869 36.4991 15.0329 36.6361 14.7619C36.7491 14.5359 36.9881 14.1319 36.9551 13.7309C36.7561 13.6089 36.4091 13.4949 36.4091 13.4949C36.4421 13.8429 36.3441 14.1569 36.1691 14.4919ZM33.6851 16.9259C33.6851 16.9259 34.1251 16.6019 34.2311 16.3279C34.3391 16.0569 34.3671 15.8669 33.9261 15.9989C33.904 16.3201 33.8217 16.6344 33.6851 16.9259ZM40.6921 19.5109C41.2121 18.6189 40.9371 17.4879 40.9371 17.4879C39.9041 17.7579 39.3761 18.6249 39.2271 18.8729C39.0801 19.1199 38.8331 20.0769 38.7231 20.4629C38.5891 20.9359 38.4101 21.3389 38.1791 21.6289C39.3251 21.0949 40.2421 20.2839 40.6921 19.5109ZM36.7761 15.5729C36.7841 15.6489 36.7901 15.7249 36.7931 15.8049C36.9951 15.4629 37.5831 15.8149 37.5831 15.8149C37.2131 15.2359 37.0331 15.1729 36.7651 15.0719C36.7441 15.2119 36.7491 15.3759 36.7751 15.5719L36.7761 15.5729ZM42.3101 19.7529L42.0051 20.6199C42.813 19.9905 43.6308 19.3737 44.4581 18.7699C44.9341 18.4189 45.6471 17.9179 46.3581 17.6839C46.3581 17.6839 45.7041 18.5149 45.1761 18.9229C44.5691 19.3939 43.9501 19.8019 43.4381 20.0739C42.9871 20.3169 42.7561 20.4539 41.8391 20.8879C41.7761 20.9999 41.5861 21.2629 41.5121 21.3659C44.0321 20.9559 46.8041 19.0909 47.6601 17.9359C48.5201 16.7809 48.2751 15.0569 48.2751 15.0569C47.4421 15.2189 45.6371 16.7429 45.1701 17.2019C44.7021 17.6589 43.2901 19.0039 42.3101 19.7529ZM40.2731 20.4179C40.4691 20.3219 40.6941 20.2189 40.9211 20.1259L41.1311 20.0409C42.9931 19.0749 44.8381 17.0749 45.5851 15.6849C46.3301 14.2939 46.0231 12.6789 45.8251 11.8149C44.9791 12.5149 43.7631 13.8949 43.2321 14.6449C42.5801 15.5649 41.7451 16.8679 41.2271 17.9289V17.9599C41.2311 18.0699 41.2341 18.1899 41.2291 18.3169L41.2071 18.5939C41.8181 17.8329 42.5501 16.9159 43.2461 16.0669C43.7241 15.4869 44.1301 15.1359 44.5771 14.8529C44.1991 15.9279 43.5241 16.7869 43.0421 17.2149C42.5651 17.6409 41.8721 18.3619 41.1951 18.8039L41.1281 19.0219C41.0738 19.2311 40.9914 19.432 40.8831 19.6189C40.7241 19.8909 40.5191 20.1589 40.2731 20.4189V20.4179ZM49.9571 19.7479C47.9831 19.6969 46.3871 20.1679 45.1561 20.5379C43.7171 20.9679 41.5221 21.7699 40.7551 22.1049C41.0431 22.1139 41.3581 22.1969 41.6251 22.3699C42.6961 21.9699 43.1951 21.7979 44.1691 21.5329C44.9361 21.3219 45.5041 21.2799 45.9851 21.2349C45.9851 21.2349 45.3091 21.6719 44.1951 22.0189C43.0901 22.3639 42.6151 22.4229 41.7181 22.5899C41.7131 22.6219 41.5791 23.2469 40.8381 23.5919C42.4311 22.9119 45.5721 22.5189 47.2581 21.8319C49.5401 20.9039 49.9581 19.7489 49.9581 19.7489L49.9571 19.7479ZM35.4931 30.4899C35.4931 30.4899 35.8951 30.0589 36.0111 29.7039C36.1493 29.2993 36.1549 28.861 36.0271 28.4529C35.9554 28.2372 35.8434 28.037 35.6971 27.8629C35.6344 27.9499 35.5552 28.0236 35.4641 28.0799L35.3821 28.1199L35.2941 28.0919C35.2219 28.0701 35.1517 28.0423 35.0841 28.0089C34.9941 28.2519 34.9601 28.3689 34.9361 28.5749C34.9061 28.8489 34.8521 29.2819 34.9551 29.6339C35.0851 30.0639 35.3451 30.3269 35.4931 30.4899ZM41.4451 26.4599C41.1051 25.4749 40.4301 25.3229 39.7681 25.2019C39.2872 25.1014 38.7915 25.0946 38.3081 25.1819C38.5201 25.4149 38.5931 25.6439 38.6961 25.7919C39.0211 26.2549 39.5921 26.5279 40.2451 26.6619C41.0171 26.8139 41.4451 26.4609 41.4451 26.4609V26.4599ZM29.3401 18.5769C29.5701 18.3529 29.8521 18.0189 29.9591 17.6999C29.9591 17.6999 29.5011 17.7069 29.2871 17.8459C29.0101 18.0239 28.7451 18.4129 28.6451 18.8789C28.6451 18.8789 29.1101 18.8009 29.3401 18.5769ZM27.5531 17.8459C27.3391 17.7069 26.8791 17.6999 26.8791 17.6999C26.9871 18.0199 27.2701 18.3529 27.5011 18.5769C27.7291 18.8009 28.1921 18.8789 28.1921 18.8789C28.0911 18.4129 27.8291 18.0239 27.5531 17.8459ZM22.0291 17.3119C22.0055 17.3119 21.9822 17.3073 21.9605 17.2982C21.9387 17.2891 21.919 17.2758 21.9025 17.2591C21.8859 17.2424 21.8729 17.2225 21.864 17.2007C21.8552 17.1789 21.8508 17.1555 21.8511 17.1319C21.8511 17.0319 21.9311 16.9519 22.0291 16.9519C22.1331 16.9519 22.2161 17.0319 22.2161 17.1319C22.2161 17.2319 22.1331 17.3119 22.0291 17.3119ZM22.1411 16.3449C21.8941 16.2869 21.3731 16.2289 21.1431 16.5609C20.9111 16.8909 21.0001 17.5159 21.4621 17.7709C21.4621 17.7709 22.1661 17.1779 23.0201 17.7679C23.0201 17.7679 23.2171 17.6419 23.6631 17.5439C23.6631 17.5439 23.4011 17.2319 23.1071 17.1019C22.8421 16.9839 22.2971 16.8289 22.1411 16.3449ZM24.3361 24.7719C24.6061 24.7719 25.0141 24.5569 25.5161 23.9369C26.2581 23.0239 26.4271 21.7919 26.4271 21.7919C25.6671 23.0359 24.9101 23.6829 24.3201 23.6489C23.7971 23.6219 23.5551 22.8839 23.5551 22.8839C23.2911 23.0919 23.2451 23.6839 23.3851 24.0609C23.5201 24.4409 23.9291 24.7719 24.3361 24.7719ZM24.2991 18.2359C24.0711 18.0559 23.7601 17.6509 23.7601 17.6509C23.3531 17.7439 23.0661 17.7959 22.7521 18.2139C22.4621 18.6009 22.8601 19.1959 22.8601 19.1959C23.1501 18.2249 24.2991 18.2359 24.2991 18.2359ZM33.5171 31.3129C33.2111 32.8199 33.6871 33.4389 33.6871 33.4389C34.4771 32.5129 34.5431 31.5489 34.7231 30.1189C34.6361 30.3079 34.5231 30.5059 34.3711 30.7009C34.1631 32.1439 33.8751 32.3449 33.8751 32.3449C33.7631 31.7319 33.9451 31.1199 33.9451 31.1199C33.8129 31.2055 33.6686 31.2705 33.5171 31.3129ZM34.7311 27.7859C34.6551 27.7199 34.5891 27.6559 34.5311 27.5979C34.4171 27.7399 34.0291 28.2139 33.8381 28.6889C33.6921 29.0929 33.5381 29.6429 33.4621 29.9569C33.3821 30.2699 33.1521 30.9269 33.0131 31.1509C33.0131 31.1509 33.6281 31.2269 34.0831 30.7069C34.5301 30.1969 34.6801 29.6859 34.7531 29.1599C34.8051 28.7499 34.7901 28.1779 34.7311 27.7859ZM34.6231 17.1319C34.6231 17.0319 34.7071 16.9519 34.8051 16.9519C34.9051 16.9519 34.9901 17.0319 34.9901 17.1319C34.9901 17.2319 34.9061 17.3119 34.8051 17.3119C34.7571 17.3119 34.7111 17.2931 34.6771 17.2593C34.643 17.2256 34.6236 17.1799 34.6231 17.1319ZM35.3741 17.7719C35.8381 17.5159 35.9291 16.8909 35.6961 16.5619C35.4661 16.2289 34.9451 16.2869 34.6961 16.3449C34.5411 16.8289 33.9941 16.9849 33.7321 17.1019C33.4361 17.2319 33.1721 17.5439 33.1721 17.5439C33.6181 17.6419 33.8181 17.7679 33.8181 17.7679C34.0421 17.5984 34.3156 17.5069 34.5966 17.5074C34.8776 17.508 35.1506 17.6015 35.3741 17.7719ZM33.9781 19.1959C33.9781 19.1959 34.3771 18.6009 34.0851 18.2129C33.7731 17.7959 33.4861 17.7429 33.0771 17.6509C33.0771 17.6509 32.7691 18.0559 32.5411 18.2359C32.5411 18.2359 33.6891 18.2249 33.9781 19.1959ZM33.2851 22.8839C33.2851 22.8839 33.0411 23.6219 32.5191 23.6489C31.9311 23.6829 31.1721 23.0359 30.4121 21.7919C30.4121 21.7919 30.5801 23.0239 31.3221 23.9369C31.8221 24.5569 32.2321 24.7719 32.5011 24.7719C32.9071 24.7719 33.3171 24.4409 33.4551 24.0609C33.5901 23.6829 33.5481 23.0919 33.2851 22.8839ZM33.0751 35.8359C33.3911 35.6399 33.7151 35.5439 33.7781 35.5249C33.4981 35.3449 33.2581 35.2279 33.0661 35.1519C32.8711 35.0749 32.5991 35.0069 32.5991 35.0069C32.4731 35.0469 32.2491 35.0669 32.2491 35.0669C32.5121 35.1229 32.7981 35.5359 32.8641 35.6569C32.9341 35.7839 33.0741 35.8369 33.0741 35.8369L33.0751 35.8359ZM32.5081 36.7479C32.6201 36.6949 32.8501 36.4929 32.7731 36.0679C32.6891 35.5709 31.9531 35.0739 31.9531 35.0739C31.8389 35.0766 31.7257 35.0519 31.6231 35.0019C31.4833 35.0763 31.3534 35.1677 31.2361 35.2739C31.4591 35.2369 31.8231 35.3349 32.0261 35.4839C32.1791 35.5959 32.4291 35.9839 32.2751 36.2529C32.1201 36.5189 31.5541 36.3359 31.5541 36.3359C31.8861 37.0079 32.3971 36.8029 32.5081 36.7479ZM33.5181 36.1479C33.6841 36.1149 33.9361 36.2679 33.9361 36.2679C33.9361 36.1409 33.8851 36.0159 34.0301 35.9229C34.1671 35.8369 34.7251 35.9399 34.9601 35.8999C35.0741 35.8799 35.1181 35.8149 35.0871 35.7499C35.0151 35.5849 34.8791 35.4329 34.8791 35.4329C34.6091 35.5109 33.7741 35.7289 33.4731 35.8699C33.2891 35.9549 32.9841 36.1179 32.9291 36.2679C32.8531 36.4719 32.9541 36.5709 33.0341 36.6619C33.1601 36.2999 33.2981 36.1939 33.5181 36.1479ZM35.7381 30.5539C35.9671 32.0849 35.5951 32.3609 35.5951 32.3609C35.2241 31.6459 35.3461 30.6359 35.3461 30.6359C35.2551 30.5299 35.0661 30.3399 34.9561 30.1609C35.1371 33.3509 35.6501 33.7179 35.6501 33.7179C36.3991 33.0339 36.1761 30.8479 36.1101 30.0169C36.001 30.2059 35.8766 30.3855 35.7381 30.5539ZM32.1761 39.9809C31.2961 39.5179 30.4331 38.8089 29.6541 37.6869C29.634 37.6485 29.611 37.6117 29.5851 37.5769C29.5851 37.5769 29.2931 37.6469 29.0631 37.5469L29.2131 37.7909C30.0501 39.0389 30.9751 39.8209 31.9231 40.3279L32.1761 39.9809ZM22.1061 27.7859C22.0511 28.1779 22.0301 28.7499 22.0881 29.1599C22.1581 29.6859 22.3081 30.1969 22.7551 30.7069C23.2091 31.2269 23.8231 31.1509 23.8231 31.1509C23.6831 30.9269 23.4551 30.2699 23.3781 29.9569C23.2715 29.5291 23.1463 29.106 23.0031 28.6889C22.8101 28.2149 22.4201 27.7399 22.3031 27.5989C22.2511 27.6549 22.1831 27.7189 22.1051 27.7859H22.1061ZM24.6291 25.9389C24.7141 25.7019 24.6561 24.9969 24.6561 24.9969C24.2031 25.2039 23.6621 24.9229 23.6621 24.9229C23.6681 25.4629 24.1061 26.2059 24.2421 26.4089C24.4621 26.2459 24.5551 26.1329 24.6291 25.9389ZM21.7501 35.7499C21.7191 35.8149 21.7601 35.8799 21.8781 35.8999C22.1111 35.9399 22.6691 35.8369 22.8071 35.9229C22.9511 36.0159 22.8981 36.1419 22.8981 36.2679C22.8981 36.2679 23.1541 36.1149 23.3151 36.1479C23.5391 36.1949 23.6741 36.2999 23.8011 36.6619C23.8821 36.5719 23.9831 36.4719 23.9051 36.2679C23.8521 36.1179 23.5471 35.9549 23.3651 35.8699C23.0651 35.7299 22.2311 35.5099 21.9571 35.4329C21.9571 35.4329 21.8201 35.5849 21.7501 35.7499ZM22.9481 38.9269L25.6821 42.6729L26.0041 42.1939C24.8961 40.6799 23.5291 38.8039 23.3901 38.6139L23.8201 38.3139L22.4671 37.8059L22.4901 39.2499L22.9481 38.9269ZM21.7531 28.0099C21.6848 28.0441 21.6135 28.0719 21.5401 28.0929L21.4561 28.1219L21.3721 28.0809C21.3611 28.0739 21.2521 28.0129 21.1381 27.8639C20.9926 28.0378 20.8822 28.2381 20.8131 28.4539C20.6651 28.8969 20.7071 29.3319 20.8271 29.7039C20.9411 30.0589 21.3431 30.4909 21.3431 30.4909C21.4881 30.3279 21.7531 30.0659 21.8811 29.6349C21.9851 29.2829 21.9301 28.8499 21.9011 28.5759C21.8811 28.3689 21.8441 28.2529 21.7531 28.0099ZM21.8811 30.1599C21.7731 30.3399 21.5811 30.5299 21.4881 30.6359C21.4881 30.6359 21.6131 31.6459 21.2421 32.3609C21.2421 32.3609 20.8711 32.0849 21.1001 30.5539C20.9629 30.3845 20.8385 30.205 20.7281 30.0169C20.6631 30.8469 20.4381 33.0339 21.1881 33.7179C21.1881 33.7179 21.7011 33.3499 21.8811 30.1599ZM32.1811 24.9969C32.1811 24.9969 32.1231 25.7019 32.2111 25.9389C32.2811 26.1329 32.3751 26.2459 32.5931 26.4089C32.7311 26.2059 33.1721 25.4639 33.1771 24.9229C33.1771 24.9229 32.6351 25.2039 32.1811 24.9969ZM21.6341 40.8699C21.1921 40.9359 20.7641 40.9579 20.3491 40.9389C20.3561 41.0059 20.3561 41.0939 20.3161 41.1589C20.3161 41.1589 20.4001 41.2539 20.4001 41.3589C20.8181 41.3729 21.2551 41.3489 21.7001 41.2819C22.4401 41.1719 23.2181 41.0249 24.0001 40.7359L23.7411 40.3809C23.0251 40.6329 22.3111 40.7689 21.6341 40.8699ZM19.3871 41.5239C19.2548 41.6705 19.1281 41.822 19.0071 41.9779C18.9801 42.0279 19.0241 42.1069 19.1051 42.0959C19.1831 42.0879 19.6201 42.0449 19.8701 41.8789C20.1201 41.7109 20.2871 41.3879 20.1141 41.2719C19.9421 41.1549 19.6741 41.2109 19.3871 41.5239ZM27.3851 44.0839C27.2781 43.9409 26.9911 43.5479 26.6151 43.0339L26.2951 43.5089L27.4311 45.0649L28.2911 43.5689L27.9871 43.0339C27.7621 43.4279 27.5211 43.8499 27.3851 44.0839ZM34.3431 39.2479L34.3711 37.8039L33.0131 38.3109L33.4441 38.6119L29.4521 44.0849L27.4221 40.4879L27.1721 40.8629L25.3661 43.5309L24.9131 43.2369L24.9081 44.6549L26.2791 44.1239L25.8191 43.8269C26.0681 43.4569 27.0491 42.0119 27.3751 41.5259L29.4061 45.0649L33.8881 38.9249L34.3431 39.2479ZM17.6121 28.7999C17.5961 28.7669 17.5861 28.7319 17.5781 28.7099C17.5466 28.6063 17.5321 28.4982 17.5351 28.3899C15.8331 30.1659 14.8461 30.4699 14.8461 30.4699C15.4781 29.2229 17.0371 28.4499 17.5761 28.1509C17.612 28.0203 17.6739 27.8982 17.7581 27.7919C17.7361 27.7989 17.7121 27.7999 17.6881 27.8019C17.3881 27.8379 17.1491 27.7849 16.9681 27.7059C16.2581 28.2089 15.2931 28.9719 14.5381 29.8059C13.7831 30.6409 13.5121 31.4139 13.3741 32.3929C13.3741 32.3929 14.7841 32.3439 15.6761 31.1369C16.5661 29.9279 17.0111 29.3769 17.6121 28.7999ZM16.6731 27.5139C16.6241 27.4704 16.5799 27.4218 16.5411 27.3689C16.5411 27.3689 14.9831 28.7149 13.3381 29.2989C13.3381 29.2989 13.6881 28.6739 14.3411 28.2209C15.1331 27.6709 15.7261 27.4869 16.4191 27.1729L16.4761 27.0699C16.4981 27.0349 16.5161 27.0039 16.5411 26.9749C15.9601 27.1939 13.8951 27.9559 13.2271 28.2949C12.5571 28.6339 11.5911 29.4019 11.0651 30.9649C11.0651 30.9649 12.4591 31.0859 13.6091 30.1559C14.7591 29.2229 16.1001 27.9259 16.6731 27.5139ZM19.3091 41.1409C19.2478 41.1046 19.1794 41.0822 19.1085 41.0753C19.0377 41.0683 18.9661 41.0771 18.8991 41.1009C18.7251 41.1629 18.0921 41.5269 18.0511 41.6999C18.0071 41.8709 18.0951 41.9549 18.1941 41.9939C18.2911 42.0309 18.4091 42.0669 18.4971 42.0779C18.5718 42.08 18.646 42.0653 18.7143 42.035C18.7826 42.0047 18.8434 41.9596 18.8921 41.9029C18.9721 41.8029 19.2691 41.4559 19.3091 41.3739C19.3521 41.2989 19.3741 41.1839 19.3091 41.1409ZM31.4711 43.5309L31.1501 43.0529L30.8081 43.5149C30.9001 43.6469 30.9691 43.7559 31.0171 43.8279L30.5571 44.1249L31.9311 44.6559L31.9231 43.2369L31.4711 43.5319V43.5309ZM18.8531 40.4199C18.8491 40.2589 18.7031 40.2169 18.5701 40.2169C18.4381 40.2169 17.8851 40.2299 17.5901 40.0139C17.5705 40.0001 17.5521 39.9847 17.5351 39.9679C17.2311 39.7079 17.0581 39.3079 17.0581 38.8679C17.0581 38.0289 17.7571 37.3419 18.6201 37.3419C19.4821 37.3419 20.1781 38.0289 20.1781 38.8689C20.1781 38.9819 20.1561 39.1709 20.1561 39.1709C20.2271 39.0389 20.4841 38.4559 20.5361 38.3489C20.4142 37.9361 20.1614 37.574 19.8158 37.3173C19.4702 37.0607 19.0505 36.9233 18.6201 36.9259C17.8331 36.9259 17.1541 37.3719 16.8301 38.0199C16.9521 37.2499 17.3451 36.5559 17.6221 36.3009C17.9551 35.9949 18.5191 35.8959 18.5191 35.8959C18.1491 35.9559 17.6591 35.7319 17.1131 35.2399C16.5931 34.7769 16.3291 34.3689 16.3131 34.0299C16.3441 34.5089 16.3291 34.7769 16.1891 35.1679C16.0021 35.6979 15.4871 36.6809 15.6721 37.7879C15.7721 38.3959 16.2221 39.3009 16.9781 40.0409C17.1381 40.2069 17.1971 40.4529 17.2171 40.5779C17.2171 40.5779 18.3281 40.5779 18.5911 40.6039C18.5911 40.6039 18.8561 40.5779 18.8531 40.4199ZM18.6551 40.7279C18.5251 40.7079 18.1081 40.7189 17.8581 40.7539C17.5851 40.7989 17.2741 40.8509 17.2401 40.9989C17.2101 41.1409 17.3091 41.2869 17.4481 41.5009C17.5321 41.6329 17.7361 41.5559 17.8481 41.5149C17.9611 41.4749 18.6041 41.1379 18.7061 41.0269C18.8091 40.9169 18.8531 40.7599 18.6561 40.7269L18.6551 40.7279ZM43.6131 28.2959C42.9461 27.9569 40.8791 27.1949 40.3001 26.9759C40.3221 27.0059 40.3421 27.0359 40.3621 27.0709L40.4221 27.1739C41.1151 27.4879 41.7061 27.6719 42.5021 28.2219C43.1491 28.6749 43.5001 29.2999 43.5001 29.2999C41.8561 28.7159 40.3001 27.3699 40.3001 27.3699C40.2594 27.4218 40.2146 27.4703 40.1661 27.5149C40.7361 27.9269 42.0791 29.2239 43.2281 30.1569C44.3791 31.0869 45.7701 30.9659 45.7701 30.9659C45.2461 29.4029 44.2801 28.6349 43.6131 28.2959ZM44.6811 26.6599C43.9191 26.4329 42.2141 26.2329 41.5321 26.0979C41.5571 26.1459 41.5791 26.1959 41.6011 26.2509C42.1651 26.3939 42.9041 26.6449 43.5791 26.9189C44.1991 27.1759 44.7911 27.5829 44.7911 27.5829C43.5941 27.5509 42.3861 27.0879 41.4841 26.6939C41.2662 26.8205 41.0216 26.8938 40.7701 26.9079C41.2021 27.0199 41.9081 27.2359 44.1701 28.2779C46.4351 29.3179 47.6331 28.9579 47.6331 28.9579C46.8161 27.4319 45.4381 26.8879 44.6811 26.6599ZM32.6701 13.9429H32.9671V13.4729H33.3401V13.2199H32.9671V12.8179H32.6701V13.2199H32.3001V13.4719H32.6701V13.9429ZM42.2471 24.7469C42.2371 24.7569 42.1171 24.8509 41.9281 24.9629C42.7451 25.0339 44.4821 25.1129 45.3781 25.5599C45.3781 25.5599 43.7241 25.7739 41.5451 25.1559C41.3231 25.2559 41.1541 25.3069 40.8651 25.3369C41.0221 25.4369 41.1731 25.5629 41.3071 25.7339C42.1041 25.9599 43.4611 26.2039 45.7041 26.3619C47.9461 26.5179 49.1411 26.1179 49.1411 26.1179C48.3611 25.6509 47.1161 25.1769 46.2741 25.0179C45.4291 24.8579 43.2181 24.8759 42.2471 24.7469ZM16.0681 26.9079C15.8168 26.8942 15.5724 26.8209 15.3551 26.6939C14.4531 27.0879 13.2451 27.5509 12.0481 27.5839C12.0481 27.5839 12.6381 27.1759 13.2591 26.9189C13.9025 26.6536 14.5626 26.4305 15.2351 26.2509C15.2571 26.1994 15.2805 26.1484 15.3051 26.0979C14.6231 26.2319 12.9211 26.4329 12.1591 26.6609C11.3991 26.8889 10.0221 27.4319 9.20606 28.9569C9.20606 28.9569 10.4041 29.3179 12.6661 28.2779C14.9271 27.2359 15.6371 27.0199 16.0681 26.9079ZM39.8701 27.7069C39.6431 27.8031 39.3943 27.8363 39.1501 27.8029C39.1264 27.8021 39.103 27.7987 39.0801 27.7929C39.1741 27.9159 39.2301 28.0379 39.2631 28.1529C39.8001 28.4519 41.3631 29.2229 41.9931 30.4719C41.9931 30.4719 41.0051 30.1669 39.3011 28.3919C39.3077 28.5325 39.2824 28.6726 39.2271 28.8019C39.8261 29.3769 40.2721 29.9299 41.1621 31.1379C42.0521 32.3449 43.4631 32.3939 43.4631 32.3939C43.3281 31.4149 43.0561 30.6419 42.3001 29.8079C41.5451 28.9729 40.5811 28.2099 39.8701 27.7069ZM37.9401 41.0999C37.8722 41.0764 37.8 41.0679 37.7285 41.0749C37.6571 41.082 37.588 41.1045 37.5261 41.1409C37.4651 41.1829 37.4861 41.2989 37.5261 41.3739C37.5731 41.4559 37.8661 41.8039 37.9481 41.9029C37.9964 41.9593 38.0566 42.0042 38.1244 42.0345C38.1922 42.0647 38.2658 42.0796 38.3401 42.0779C38.4441 42.0611 38.5461 42.0329 38.6441 41.9939C38.7421 41.9539 38.8291 41.8709 38.7881 41.6999C38.7441 41.5269 38.1121 41.1629 37.9401 41.0999ZM36.7261 41.2729C36.5531 41.3889 36.7191 41.7119 36.9691 41.8799C37.2191 42.0459 37.6531 42.0889 37.7341 42.0969C37.8131 42.1069 37.8611 42.0279 37.8301 41.9789C37.7093 41.8233 37.5832 41.6719 37.4521 41.5249C37.1621 41.2119 36.8941 41.1569 36.7261 41.2729ZM40.5251 34.0289C40.5121 34.3679 40.2431 34.7749 39.7251 35.2389C39.1771 35.7309 38.6881 35.9539 38.3191 35.8949C38.3191 35.8949 38.8841 35.9929 39.2161 36.2999C39.4961 36.5549 39.8841 37.2489 40.0061 38.0189C39.8394 37.6884 39.5839 37.411 39.2682 37.2177C38.9525 37.0245 38.5892 36.9231 38.2191 36.9249C37.7882 36.9213 37.3679 37.0582 37.022 37.315C36.676 37.5718 36.4232 37.9345 36.3021 38.3479C36.3521 38.4549 36.6121 39.0379 36.6821 39.1699C36.6821 39.1699 36.6601 38.9809 36.6601 38.8679C36.6601 38.0279 37.3581 37.3399 38.2191 37.3399C39.0811 37.3399 39.7821 38.0279 39.7821 38.8679C39.7821 39.3079 39.6051 39.7079 39.3021 39.9669C39.2831 39.9829 39.2691 39.9969 39.2491 40.0129C38.9541 40.2289 38.3991 40.2159 38.2691 40.2159C38.1361 40.2159 37.9911 40.2579 37.9861 40.4189C37.9821 40.5769 38.2441 40.6029 38.2441 40.6029C38.5101 40.5769 39.6221 40.5769 39.6221 40.5769C39.6401 40.4519 39.7011 40.2059 39.8631 40.0399C40.6161 39.2999 41.0671 38.3949 41.1681 37.7869C41.3511 36.6799 40.8351 35.6969 40.6451 35.1669C40.5071 34.7769 40.4941 34.5079 40.5251 34.0289ZM36.4891 40.9389C36.0781 40.9589 35.6461 40.9369 35.2031 40.8709C34.5271 40.7699 33.8131 40.6339 33.0971 40.3809L32.8391 40.7349C33.6201 41.0259 34.4021 41.1739 35.1391 41.2829C35.5861 41.3509 36.0191 41.3739 36.4421 41.3609C36.4421 41.2549 36.5221 41.1589 36.5221 41.1589C36.4892 41.0906 36.4777 41.0139 36.4891 40.9389ZM38.9791 40.7529C38.7321 40.7179 38.3151 40.7059 38.1821 40.7269C37.9871 40.7589 38.0311 40.9169 38.1301 41.0269C38.2351 41.1369 38.8781 41.4739 38.9911 41.5139C39.1011 41.5549 39.3041 41.6319 39.3931 41.4999C39.5301 41.2859 39.6281 41.1399 39.5991 40.9979C39.5651 40.8499 39.2531 40.7979 38.9791 40.7529ZM46.3351 22.6809C43.9911 22.8309 42.4311 23.3679 41.2981 23.7039C41.4651 23.7639 41.6001 23.8299 41.7131 23.8939C44.2481 23.1899 46.0531 23.5559 46.0531 23.5559C45.3131 23.7989 43.2441 24.1129 42.0001 24.1059C42.1251 24.2209 42.2061 24.3359 42.2751 24.4389C43.3371 24.4289 44.7921 24.6709 46.5831 24.2889C48.3741 23.9089 49.9391 22.8309 49.9391 22.8309C49.2991 22.6679 48.0551 22.5709 46.3351 22.6809ZM27.7091 13.9719C27.6381 13.4619 27.4501 12.2339 27.2471 12.0819C27.1421 12.0049 27.0051 12.0129 26.8511 12.0599C26.6941 12.1079 26.5281 12.2099 26.5211 12.3439C26.5111 12.5689 26.7741 13.2409 27.1621 14.1489C27.3921 14.0349 27.5121 14.0089 27.7091 13.9719ZM11.1351 26.3619C13.3771 26.2029 14.7371 25.9589 15.5351 25.7319C15.6577 25.5755 15.8066 25.4415 15.9751 25.3359C15.6851 25.3059 15.5151 25.2559 15.2951 25.1559C13.1151 25.7729 11.4621 25.5589 11.4621 25.5589C12.3571 25.1129 14.0951 25.0329 14.9111 24.9619C14.7989 24.8985 14.6919 24.8262 14.5911 24.7459C13.6211 24.8759 11.4101 24.8569 10.5671 25.0159C9.72406 25.1759 8.47906 25.6499 7.69806 26.1179C7.69806 26.1179 8.89506 26.5189 11.1351 26.3619ZM27.8761 13.9529C27.9741 13.9419 28.0761 13.9369 28.1791 13.9329C28.1171 13.4429 27.9431 12.6319 27.8441 12.3129C27.7411 11.9909 27.6111 11.7599 27.3971 11.7029C27.3971 11.7029 27.5641 12.1509 27.6571 12.6109C27.7471 13.0719 27.8161 13.5129 27.8771 13.9529H27.8761ZM27.5121 15.0319C27.5121 15.0319 27.0701 15.4819 26.6401 15.5819C26.6401 15.5819 26.8161 15.1299 27.5121 15.0319ZM27.2851 15.5419C27.5701 15.3759 27.8151 14.9999 27.8691 14.8249C27.6281 14.7919 27.0151 14.8579 26.6391 15.1209C26.3709 15.2984 26.1546 15.5437 26.0121 15.8319C26.0121 15.8319 26.6841 15.8819 27.2851 15.5419ZM23.8721 13.9419H24.1721V13.4719H24.5421V13.2189H24.1721V12.8169H23.8721V13.2189H23.4981V13.4709H23.8721V13.9409V13.9419ZM29.3301 15.0319C30.0241 15.1299 30.2021 15.5819 30.2021 15.5819C29.7691 15.4819 29.3301 15.0319 29.3301 15.0319ZM28.9701 14.8249C29.0271 14.9999 29.2721 15.3759 29.5551 15.5419C30.1551 15.8819 30.8281 15.8319 30.8281 15.8319C30.6871 15.5432 30.4708 15.2979 30.2021 15.1219C29.8251 14.8579 29.2131 14.7919 28.9711 14.8249H28.9701ZM32.2421 15.4409C32.3521 15.4209 32.3311 15.4289 32.6051 15.4069C32.5521 15.1639 32.4551 14.5359 32.3021 14.3959C32.1561 14.2629 31.9411 14.2509 31.8341 14.2559C31.7281 14.2629 31.6141 14.3709 31.6601 14.5109C31.7031 14.6559 32.1771 15.3509 32.2421 15.4409ZM28.2681 11.5689H28.5701V11.0959H28.9411V10.8449H28.5711V10.4449H28.2681V10.8449H27.8981V11.0949H28.2681V11.5689ZM29.6781 14.1489C30.0691 13.2409 30.3281 12.5689 30.3181 12.3449C30.3121 12.2099 30.1471 12.1079 29.9931 12.0599C29.8351 12.0129 29.6951 12.0049 29.5931 12.0819C29.3911 12.2339 29.2011 13.4619 29.1311 13.9719C29.3311 14.0089 29.4511 14.0349 29.6781 14.1489ZM28.9641 13.9529C29.0241 13.5129 29.0941 13.0729 29.1841 12.6109C29.2771 12.1509 29.4441 11.7019 29.4441 11.7019C29.2271 11.7599 29.0981 11.9919 28.9981 12.3119C28.8961 12.6319 28.7251 13.4439 28.6621 13.9319C28.7641 13.9369 28.8651 13.9419 28.9641 13.9529ZM24.2351 15.4069C24.5091 15.4289 24.4881 15.4219 24.5971 15.4409C24.6611 15.3509 25.1351 14.6559 25.1821 14.5109C25.2251 14.3709 25.1121 14.2629 25.0041 14.2569C24.8981 14.2509 24.6811 14.2629 24.5381 14.3959C24.3861 14.5359 24.2891 15.1639 24.2361 15.4059L24.2351 15.4069ZM15.7091 20.0409L15.9181 20.1259C16.1461 20.2189 16.3711 20.3219 16.5681 20.4179C16.3346 20.176 16.1299 19.9079 15.9581 19.6189C15.8495 19.4318 15.7665 19.2311 15.7111 19.0219L15.6471 18.8039C14.9711 18.3619 14.2741 17.6409 13.7971 17.2139C13.3181 16.7869 12.6381 15.9279 12.2641 14.8539C12.7111 15.1359 13.1161 15.4869 13.5941 16.0669C14.2911 16.9159 15.0201 17.8329 15.6321 18.5939L15.6111 18.3169C15.6071 18.1899 15.6111 18.0699 15.6141 17.9599L15.6121 17.9289C15.0961 16.8689 14.2591 15.5649 13.6061 14.6449C13.0761 13.8949 11.8611 12.5149 11.0161 11.8149C10.8191 12.6789 10.5061 14.2939 11.2561 15.6849C12.0041 17.0749 13.8471 19.0749 15.7091 20.0409ZM15.3271 21.3659C15.2123 21.2106 15.1032 21.0512 15.0001 20.8879C14.0851 20.4539 13.8521 20.3179 13.4001 20.0739C12.7915 19.7369 12.2106 19.352 11.6631 18.9229C11.1351 18.5149 10.4801 17.6829 10.4801 17.6829C11.1911 17.9179 11.9061 18.4189 12.3831 18.7699C13.0011 19.2259 13.9951 19.9599 14.8331 20.6199L14.5291 19.7519C13.5501 19.0029 12.1391 17.6589 11.6691 17.2019C11.2021 16.7419 9.39606 15.2189 8.56406 15.0569C8.56406 15.0569 8.32306 16.7799 9.17906 17.9359C10.0361 19.0909 12.8071 20.9559 15.3271 21.3659ZM14.5661 24.4389C14.6341 24.3369 14.7151 24.2209 14.8391 24.1059C13.5961 24.1129 11.5291 23.7989 10.7891 23.5559C10.7891 23.5559 12.5921 23.1899 15.1261 23.8949C15.2401 23.8299 15.3761 23.7649 15.5441 23.7039C14.4071 23.3679 12.8501 22.8309 10.5041 22.6809C8.78406 22.5709 7.54406 22.6679 6.90106 22.8309C6.90106 22.8309 8.46806 23.9089 10.2571 24.2889C12.0491 24.6699 13.5031 24.4289 14.5661 24.4389ZM18.6601 21.6289C18.4291 21.3389 18.2481 20.9359 18.1161 20.4629C18.0071 20.0769 17.7591 19.1199 17.6131 18.8729C17.4671 18.6249 16.9371 17.7579 15.9031 17.4879C15.9031 17.4879 15.6281 18.6189 16.1481 19.5109C16.5951 20.2839 17.5161 21.0949 18.6601 21.6289ZM9.58006 21.8319C11.2691 22.5179 14.4071 22.9119 16.0011 23.5919C15.2601 23.2469 15.1261 22.6219 15.1201 22.5899C14.2251 22.4219 13.7471 22.3639 12.6441 22.0189C11.5311 21.6719 10.8551 21.2349 10.8551 21.2349C11.3351 21.2799 11.9021 21.3219 12.6731 21.5329C13.6451 21.7979 14.1441 21.9689 15.2161 22.3699C15.4811 22.1969 15.7991 22.1139 16.0841 22.1049C15.3161 21.7699 13.1241 20.9679 11.6841 20.5369C10.4541 20.1669 8.85706 19.6969 6.88306 19.7489C6.88306 19.7489 7.30006 20.9039 9.58006 21.8319ZM23.4511 15.4409C23.5621 15.4209 23.5411 15.4289 23.8141 15.4069C23.7621 15.1639 23.6641 14.5359 23.5121 14.3959C23.3681 14.2629 23.1521 14.2509 23.0471 14.2559C22.9371 14.2629 22.8261 14.3709 22.8711 14.5109C22.9131 14.6559 23.3891 15.3509 23.4511 15.4409ZM19.1231 21.7909C19.6031 22.1649 19.8071 22.5369 19.8071 22.5369C18.6601 21.8099 17.9361 22.2629 17.9361 22.2629C18.1581 23.4419 19.1621 23.6589 19.1621 23.6589C18.0771 23.5389 17.6351 24.0719 17.6351 24.0719C18.0351 24.9359 19.0821 24.9769 19.0821 24.9769C18.1581 25.6859 18.3211 26.1949 18.3211 26.1949C19.3441 26.4319 19.9071 25.9399 19.9071 25.9399C19.1231 26.9439 19.7271 27.6889 19.7271 27.6889C20.7711 27.5529 21.1151 26.7439 21.1151 26.7439C21.0121 27.6539 21.4751 27.8869 21.4751 27.8869C22.0381 27.7069 22.3211 27.2189 22.3211 27.2189C22.6221 27.8479 23.3251 27.9669 23.3251 27.9669C23.6281 27.3939 23.4081 26.8649 23.4081 26.8649C24.0121 27.0449 24.1931 26.6869 24.1931 26.6869C23.8081 26.2729 23.5891 25.6269 23.5891 25.6269C22.5421 26.0379 21.2531 25.8229 20.8901 25.4089C20.5331 24.9959 21.1341 23.9349 21.4571 23.1869C21.7771 22.4399 21.3551 21.9089 20.9761 21.6529C19.2651 20.5119 18.6411 19.6659 18.2591 18.8419C18.0561 20.3749 18.6411 21.4149 19.1231 21.7909ZM20.9851 13.6179C21.2131 13.5609 21.5181 13.3259 21.7651 13.1339C22.0101 12.9379 22.1711 12.9539 22.1711 12.9539C22.0953 12.8901 22.0058 12.8445 21.9095 12.8207C21.8133 12.797 21.7129 12.7957 21.6161 12.8169C21.1561 12.9069 20.6101 13.4269 20.6101 13.4269C20.5866 13.4993 20.5821 13.5764 20.5971 13.6509C20.7081 13.6609 20.7571 13.6779 20.9851 13.6179ZM21.6481 14.1999C21.5411 14.4009 21.3821 14.6539 21.4531 15.0139C21.5361 15.4189 22.2051 15.5729 22.2051 15.5729C22.0831 15.4509 21.9791 15.3009 21.9691 15.1579C21.9491 14.8669 22.1241 14.6279 22.2431 14.4449C22.3611 14.2629 22.5881 13.7829 22.5911 13.5929C22.5961 13.4069 22.4211 13.1949 22.2171 12.9939C22.2431 13.0859 22.2051 13.2239 22.1341 13.3909C22.0551 13.5739 21.7471 14.0109 21.6481 14.2009V14.1999ZM20.0481 15.8049C20.0481 15.7249 20.0511 15.6489 20.0631 15.5729C20.0911 15.3759 20.0931 15.2119 20.0721 15.0729C19.8051 15.1729 19.6241 15.2359 19.2571 15.8149C19.2571 15.8149 19.8441 15.4629 20.0481 15.8049ZM20.2831 15.6019C20.2311 15.9669 20.3081 16.3579 20.5601 16.7219C20.6012 16.4088 20.6774 16.1012 20.7871 15.8049C20.9371 15.4099 20.8501 14.8379 20.6681 14.4919C20.4951 14.1569 20.4001 13.8429 20.4291 13.4949C20.4291 13.4949 20.0841 13.6089 19.8831 13.7309C19.8511 14.1309 20.0921 14.5359 20.2061 14.7629C20.3411 15.0329 20.3131 15.3869 20.2831 15.6019ZM22.6081 16.3279C22.7161 16.6019 23.1551 16.9259 23.1551 16.9259C23.0174 16.6347 22.9353 16.3203 22.9131 15.9989C22.4731 15.8669 22.4981 16.0559 22.6081 16.3279ZM22.4681 30.6999C22.3272 30.5212 22.2096 30.3253 22.1181 30.1169C22.2981 31.5469 22.3601 32.5119 23.1511 33.4369C23.1511 33.4369 23.6271 32.8189 23.3211 31.3119C23.1891 31.2759 23.0381 31.2119 22.8961 31.1189C22.8961 31.1189 23.0761 31.7309 22.9611 32.3439C22.9611 32.3439 22.6791 32.1439 22.4681 30.6999ZM24.6511 18.8729C24.8191 19.0069 24.9621 19.2139 25.0281 19.5639C25.1241 20.0529 25.4161 20.5779 25.5041 20.7369L25.5401 20.7289C25.4871 20.3939 25.7001 19.6959 25.7581 19.5949C25.7581 19.5949 25.4461 19.4049 25.3031 19.2089C25.1981 19.0629 25.0151 18.8189 24.5031 18.5089C24.3549 18.5295 24.2084 18.5612 24.0651 18.6039C24.0651 18.6039 24.4551 18.7149 24.6511 18.8739V18.8729ZM30.2121 36.0609C30.4821 36.3849 31.0641 37.3219 31.9621 37.3309C31.9621 37.3309 31.8291 36.8909 31.4311 36.6369C31.0311 36.3849 30.5231 36.0609 30.2931 35.6709C30.0661 35.2819 29.8241 35.1009 29.6591 35.0289C29.6241 35.3139 29.4831 35.5769 29.3291 35.8519C29.3291 35.8519 29.8461 38.1809 31.7131 38.3619C31.7131 38.3619 31.6731 37.8789 31.1221 37.5099C30.5671 37.1439 29.7421 36.5719 29.8011 35.7069C29.8011 35.7069 29.9481 35.7369 30.2121 36.0609ZM22.8711 35.4639C22.8711 35.4639 23.3081 35.1729 23.7871 34.9939C24.0991 34.8749 24.2521 34.5569 24.5831 34.2379C24.2111 34.3699 23.3701 34.5009 23.0211 34.6019C22.6701 34.7049 22.4151 34.8799 22.0801 35.2389C22.0801 35.2389 22.5961 35.3809 22.8711 35.4639ZM25.6111 19.1719C25.6511 18.6759 25.4041 18.3849 25.0431 18.1349C24.7591 17.9319 24.1661 17.7509 24.0461 17.7179C24.2881 18.0649 24.7481 18.4579 25.0011 18.5999C25.3231 18.7769 25.6111 19.1719 25.6111 19.1719ZM28.4201 15.1519C28.4801 15.1522 28.5378 15.1287 28.5805 15.0865C28.6232 15.0444 28.6475 14.987 28.6481 14.9269C28.6478 14.8973 28.6417 14.8679 28.6301 14.8406C28.6185 14.8133 28.6016 14.7885 28.5805 14.7677C28.5593 14.7469 28.5342 14.7305 28.5067 14.7194C28.4792 14.7083 28.4497 14.7027 28.4201 14.7029C28.2921 14.7029 28.1871 14.8029 28.1871 14.9269C28.1881 14.9878 28.2132 15.0457 28.2569 15.0881C28.3006 15.1304 28.3592 15.1527 28.4201 15.1519ZM31.7921 16.4579C32.3861 16.5319 33.0821 16.5019 33.0821 16.5019C33.0441 16.7169 32.9551 16.8789 32.7981 16.9789C32.7611 16.5109 31.7921 16.5059 31.7921 16.5059V16.4579ZM29.9041 17.5409C30.5291 17.4089 30.7271 17.0679 30.8341 16.9359C30.8341 16.9359 30.7521 17.2629 30.7891 17.3939C30.7891 17.3939 31.0641 17.3779 31.2791 17.1159C31.2791 17.1159 31.1221 17.3779 31.0901 17.5999C31.0901 17.5999 31.2621 17.6199 31.5661 17.4399C31.5661 17.4399 31.5051 17.6039 31.4941 17.7929C31.4941 17.7929 32.2121 17.5669 32.5631 17.2469C32.5631 17.2469 32.5681 17.4669 32.5511 17.5929C32.5511 17.5929 33.6671 17.4829 33.7511 15.8879C33.7511 15.8879 33.0081 16.1589 32.2611 16.1239C31.5151 16.0869 30.1411 16.0729 29.6941 15.8599C29.6941 15.8599 29.7681 16.1349 30.1241 16.2919C30.1241 16.2919 29.9391 16.2919 29.7541 16.4489C29.7541 16.4489 29.8621 16.6749 30.1771 16.7939C30.1771 16.7939 29.6101 17.3709 29.0011 17.3309C29.0011 17.3309 29.2781 17.6719 29.9041 17.5409ZM32.8181 15.8419C33.2361 15.8419 33.5751 15.7839 33.5751 15.7109C33.5751 15.6339 33.2361 15.5769 32.8181 15.5769C32.4021 15.5769 32.0621 15.6339 32.0621 15.7109C32.0621 15.7839 32.4021 15.8419 32.8181 15.8419ZM32.5001 26.8599C32.4921 26.8499 32.4851 26.8449 32.4811 26.8359L32.4441 26.8849C32.3099 27.0135 32.1546 27.118 31.9851 27.1939C31.9851 27.1939 31.6531 27.8089 32.0551 28.5519C32.4531 29.2969 32.7901 30.0549 32.9541 30.4759C32.9541 30.4759 33.1681 30.4449 33.4061 29.2819C33.5691 28.4939 33.7731 28.2959 33.9841 28.0249C33.7511 28.1389 33.5671 28.1729 33.5491 28.1769L33.3911 28.2029L33.3161 28.0629C33.1939 27.8363 33.1312 27.5824 33.1341 27.3249C33.1341 27.2549 33.1371 27.1869 33.1441 27.1279C32.7721 27.1359 32.5741 26.9529 32.5001 26.8599ZM33.1671 14.2859C33.1671 14.1149 32.9541 14.0639 32.8441 14.0639H32.7841C32.6741 14.0639 32.4621 14.1139 32.4621 14.2859C32.4621 14.4589 32.7381 14.8759 32.8101 15.0599H32.8171C32.8911 14.8759 33.1671 14.4589 33.1671 14.2859ZM26.5411 18.9259C26.2511 18.5999 25.8811 17.7929 25.8811 17.7929C25.7631 17.7809 25.6241 17.7459 25.5121 17.7179C25.5191 17.8209 25.5151 18.0299 25.5151 18.0299C25.3921 17.9999 25.0201 17.8899 25.0201 17.8899C25.4611 18.1919 25.5981 18.3029 25.8101 18.5159C26.1861 18.8999 26.3971 19.3779 26.3971 19.3779C26.5581 19.1049 26.5411 18.9259 26.5411 18.9259ZM25.8811 34.2489C25.4611 34.3709 25.3661 34.8389 25.3661 34.8389C25.5511 34.9239 25.6311 35.1439 26.0061 35.1439C26.4101 35.1439 26.8731 34.7469 27.1881 34.2099C27.4111 33.8249 27.5151 33.0549 27.5151 32.9179C27.1931 33.4909 26.3991 34.0979 25.8811 34.2489ZM27.9591 24.5459C28.1351 24.8079 28.2651 24.8619 28.4191 24.9329C28.5711 24.8619 28.6991 24.8079 28.8771 24.5459C29.0121 24.3399 29.1421 23.9609 29.0691 23.6889C28.9771 23.3549 28.7941 23.2219 28.6811 23.0129C28.5911 23.0959 28.5351 23.1609 28.4231 23.2229H28.4181C28.3051 23.1609 28.2481 23.0959 28.1551 23.0129C28.0411 23.2229 27.8601 23.3549 27.7651 23.6889C27.6941 23.9609 27.8221 24.3399 27.9591 24.5459ZM28.4151 22.9229H28.4231C28.6311 22.7469 28.8171 22.4849 28.8771 22.3309C28.9331 22.1769 28.9481 21.9509 28.8101 21.7769C28.6441 21.5699 28.4361 21.3389 28.4231 21.1499H28.4131C28.3971 21.3389 28.1911 21.5699 28.0251 21.7769C27.8871 21.9509 27.9011 22.1769 27.9621 22.3309C28.0191 22.4849 28.2061 22.7469 28.4151 22.9229ZM25.7151 37.5099C25.1621 37.8789 25.1271 38.3619 25.1271 38.3619C26.9911 38.1809 27.5071 35.8519 27.5071 35.8519C27.3531 35.5769 27.2131 35.3139 27.1741 35.0299C27.0141 35.1019 26.7721 35.2819 26.5421 35.6699C26.3121 36.0609 25.8051 36.3849 25.4061 36.6369C25.0081 36.8899 24.8731 37.3299 24.8731 37.3299C25.7761 37.3219 26.3571 36.3849 26.6211 36.0609C26.8871 35.7369 27.0341 35.7069 27.0341 35.7069C27.0941 36.5719 26.2681 37.1439 25.7151 37.5099ZM31.7911 18.1349C31.4341 18.3849 31.1871 18.6749 31.2251 19.1719C31.2251 19.1719 31.5161 18.7769 31.8351 18.5999C32.0911 18.4589 32.5511 18.0649 32.7901 17.7179C32.6741 17.7509 32.0801 17.9319 31.7911 18.1349ZM30.9561 17.7929C30.9561 17.7929 30.5841 18.5999 30.2961 18.9269C30.2961 18.9269 30.2791 19.1049 30.4401 19.3769C30.4401 19.3769 30.6501 18.8999 31.0251 18.5169C31.2391 18.3029 31.3751 18.1919 31.8161 17.8909C31.8161 17.8909 31.4441 17.9989 31.3221 18.0299C31.3221 18.0299 31.3141 17.8199 31.3271 17.7179C31.2151 17.7459 31.0771 17.7809 30.9571 17.7929H30.9561ZM28.8661 12.0969C28.8661 11.8539 28.6661 11.6569 28.4191 11.6569C28.1691 11.6569 27.9691 11.8539 27.9691 12.0969C27.9691 12.4059 28.3621 13.1119 28.4111 13.4409H28.4261C28.4761 13.1109 28.8661 12.4059 28.8661 12.0969ZM32.3341 18.5099C31.8241 18.8189 31.6371 19.0629 31.5341 19.2079C31.3931 19.4049 31.0821 19.5949 31.0821 19.5949C31.1381 19.6959 31.3531 20.3949 31.2991 20.7289L31.3321 20.7369C31.4201 20.5769 31.7151 20.0529 31.8091 19.5639C31.8741 19.2139 32.0211 19.0069 32.1871 18.8739C32.3811 18.7149 32.7721 18.6039 32.7721 18.6039C32.6287 18.5614 32.4823 18.5299 32.3341 18.5099ZM31.0181 21.2759C30.9561 21.4969 30.9381 21.8339 31.0181 22.1529C31.0801 22.3959 31.2321 22.7119 31.5221 22.8889C31.7721 23.0419 32.3621 23.0769 32.5881 22.5309C32.5881 22.5309 31.5091 22.6119 31.0181 21.2759ZM25.3161 22.8889C25.6061 22.7119 25.7561 22.3959 25.8181 22.1529C25.89 21.865 25.89 21.5639 25.8181 21.2759C25.3281 22.6119 24.2481 22.5309 24.2481 22.5309C24.4721 23.0769 25.0651 23.0419 25.3161 22.8889ZM20.7101 27.5389C20.4268 27.7386 20.0982 27.8644 19.7541 27.9049C18.5361 29.0079 18.6771 29.4589 18.6771 29.4589C19.2901 29.5499 19.8421 29.2439 20.2591 28.9229C20.5311 28.7069 20.7221 28.4099 20.7851 28.1389C20.8431 27.8689 20.7631 27.6789 20.7101 27.5389ZM15.3931 26.4609C15.3931 26.4609 15.8171 26.8139 16.5901 26.6609C17.2461 26.5279 17.8151 26.2549 18.1431 25.7909C18.2431 25.6439 18.3131 25.4149 18.5281 25.1829C18.045 25.0952 17.5496 25.1017 17.0691 25.2019C16.4071 25.3229 15.7321 25.4749 15.3931 26.4609ZM17.8151 22.0809C17.8331 22.0709 18.0461 21.9409 18.4111 21.9129C18.1051 21.6889 17.3691 21.0879 16.8531 20.7999C16.2831 20.4889 15.3431 20.0769 14.8651 20.0169C14.8651 20.0169 15.3151 21.1669 15.8351 21.6339C16.3801 22.1139 16.7591 22.2939 17.6891 22.1599L17.8151 22.0809ZM19.0441 40.6029C18.9531 40.7349 19.0171 40.8779 19.2731 40.9979C19.5271 41.1149 20.0081 41.2119 20.1061 41.0849C20.1981 40.9519 20.0671 40.7349 19.5271 40.5969C19.4441 40.5769 19.1131 40.4969 19.0441 40.6029ZM14.7321 24.5799C14.7321 24.5799 15.3821 25.1129 16.1251 25.1299C16.8721 25.1539 17.5621 24.9419 17.8621 24.7259C17.68 24.5709 17.5334 24.3785 17.4321 24.1619L17.3791 24.0399C16.8041 23.8099 16.2071 23.6929 15.6191 23.9059C15.0341 24.1209 14.8781 24.3659 14.7321 24.5799ZM15.3381 22.5499C15.3381 22.5499 15.4781 23.2739 16.4341 23.5229C17.3361 23.7529 17.6681 23.6929 18.0341 23.5729C18.1341 23.5359 18.2441 23.5009 18.3691 23.4759C18.0554 23.2008 17.8373 22.8331 17.7461 22.4259C17.4791 22.4859 16.8541 22.4859 16.5791 22.3859C16.3011 22.2809 15.7611 22.2779 15.3391 22.5489L15.3381 22.5499ZM29.4621 41.5279C29.6161 41.7589 29.9201 42.2089 30.2231 42.6549L30.5631 42.1899L29.6661 40.8649L29.4121 40.4899L28.5401 42.0269L28.8601 42.5869C29.1181 42.1389 29.3481 41.7359 29.4621 41.5279ZM39.3251 39.7379C39.1171 39.5079 38.8571 39.3549 38.6201 39.3079C37.9431 39.1739 37.7071 39.6119 37.3161 39.7479C36.9281 39.8829 36.6761 39.6119 36.3061 38.7379C35.9351 37.8619 35.2841 36.6859 34.8941 36.2479C34.7661 36.1039 34.3561 36.1049 34.2901 36.1039C34.2261 36.1039 34.1641 36.1259 34.1591 36.1979C34.1561 36.2679 34.1561 36.6609 34.1561 36.6609C34.0221 36.5709 33.7191 36.3799 33.5681 36.3629C33.4121 36.3409 33.0711 36.7279 33.2301 36.7569C34.9281 37.0819 35.7401 38.9069 36.0711 39.5949C36.2431 39.9479 36.3401 40.3299 36.4291 40.6959C36.9191 40.6439 37.2721 40.5669 37.6131 40.3359C37.9501 40.1029 38.5551 39.9739 38.8771 39.9739C39.1921 39.9739 39.2651 39.8449 39.3251 39.7379ZM27.2461 14.3879C27.2461 14.5209 27.7721 14.6329 28.4191 14.6329C29.0681 14.6329 29.5931 14.5209 29.5931 14.3879C29.5931 14.2529 29.0681 14.1429 28.4191 14.1429C27.7721 14.1429 27.2461 14.2529 27.2461 14.3879ZM29.5451 38.8479C29.2351 38.5709 28.5321 37.5949 28.4211 37.2869H28.4151C28.3071 37.5949 27.6011 38.5709 27.2891 38.8469C26.9811 39.1269 26.2281 39.8639 25.8271 40.2289C25.8271 40.2289 26.9721 39.9519 27.6151 39.3809C27.6151 39.3809 28.0751 39.6409 28.4101 39.6409H28.4261C28.7601 39.6409 29.2191 39.3809 29.2191 39.3809C29.8641 39.9519 31.0111 40.2289 31.0111 40.2289C30.6081 39.8639 29.8561 39.1269 29.5451 38.8479ZM28.4251 39.8699H28.4111C28.1561 39.8699 27.9171 39.7729 27.7831 39.7139C27.9171 39.9939 28.1711 40.4279 28.4151 40.6049H28.4191C28.6631 40.4279 28.9181 39.9949 29.0541 39.7139C28.9181 39.7729 28.6781 39.8699 28.4251 39.8699ZM20.7661 39.5929C21.0981 38.9059 21.9111 37.0799 23.6061 36.7549C23.7661 36.7249 23.4221 36.3389 23.2721 36.3609C23.1191 36.3779 22.8161 36.5689 22.6841 36.6589C22.6841 36.6589 22.6841 36.2659 22.6791 36.1959C22.6751 36.1239 22.6111 36.1019 22.5451 36.1019C22.4801 36.1029 22.0701 36.1019 21.9391 36.2459C21.5541 36.6839 20.9011 37.8599 20.5321 38.7359C20.1621 39.6099 19.9111 39.8809 19.5201 39.7459C19.1301 39.6099 18.8961 39.1719 18.2181 39.3059C17.9821 39.3529 17.7201 39.5059 17.5151 39.7359C17.5721 39.8409 17.6451 39.9719 17.9641 39.9719C18.2801 39.9719 18.8861 40.1009 19.2241 40.3339C19.5641 40.5649 19.9211 40.6419 20.4071 40.6939C20.4971 40.3279 20.5961 39.9459 20.7661 39.5929ZM24.0191 15.8409C24.4381 15.8409 24.7741 15.7829 24.7741 15.7099C24.7741 15.6329 24.4381 15.5759 24.0191 15.5759C23.6021 15.5759 23.2651 15.6329 23.2651 15.7099C23.2651 15.7829 23.6021 15.8409 24.0191 15.8409ZM25.0431 16.4569V16.5049C25.0431 16.5049 24.0781 16.5099 24.0401 16.9779C23.8841 16.8779 23.7931 16.7159 23.7571 16.5009C23.7571 16.5009 24.4541 16.5309 25.0431 16.4569ZM24.2881 17.5919C24.2711 17.4659 24.2751 17.2459 24.2751 17.2459C24.6251 17.5659 25.3451 17.7919 25.3451 17.7919C25.3361 17.6717 25.3105 17.5532 25.2691 17.4399C25.5761 17.6179 25.7491 17.5989 25.7491 17.5989C25.7161 17.3769 25.5611 17.1149 25.5611 17.1149C25.7741 17.3769 26.0481 17.3929 26.0481 17.3929C26.0871 17.2619 26.0061 16.9349 26.0061 16.9349C26.1111 17.0669 26.3111 17.4079 26.9341 17.5399C27.5581 17.6709 27.8391 17.3299 27.8391 17.3299C27.2291 17.3699 26.6591 16.7929 26.6591 16.7929C26.9771 16.6739 27.0841 16.4479 27.0841 16.4479C26.9021 16.2909 26.7141 16.2909 26.7141 16.2909C27.0701 16.1339 27.1421 15.8589 27.1421 15.8589C26.6991 16.0719 25.3221 16.0859 24.5781 16.1229C23.8311 16.1579 23.0851 15.8869 23.0851 15.8869C23.1701 17.4819 24.2881 17.5919 24.2881 17.5919ZM17.6631 27.5899C17.9814 27.5583 18.2903 27.4639 18.572 27.3121C18.8537 27.1604 19.1025 26.9544 19.3041 26.7059C19.3191 26.6349 19.3521 26.5009 19.3841 26.4109C19.0991 26.4829 18.7241 26.5109 18.2681 26.4049L18.1441 26.3749L18.1061 26.2589C17.5521 26.6999 16.8961 26.7729 16.6691 27.1739C16.6691 27.1739 16.9451 27.6699 17.6631 27.5899ZM24.3741 14.2839C24.3741 14.1139 24.1631 14.0629 24.0541 14.0629H23.9931C23.8851 14.0629 23.6701 14.1129 23.6701 14.2849C23.6701 14.4579 23.9471 14.8749 24.0201 15.0589H24.0261C24.1021 14.8749 24.3741 14.4569 24.3741 14.2839ZM23.4481 28.2019L23.2881 28.1759C23.2721 28.1709 23.0851 28.1379 22.8521 28.0239C23.0661 28.2949 23.2701 28.4929 23.4321 29.2809C23.6701 30.4439 23.8841 30.4749 23.8841 30.4749C24.0451 30.0549 24.3811 29.2949 24.7821 28.5509C25.1821 27.8079 24.8521 27.1929 24.8521 27.1929C24.6221 27.0789 24.5231 27.0099 24.3961 26.8829L24.3561 26.8349C24.3521 26.8449 24.3441 26.8499 24.3401 26.8589C24.2621 26.9519 24.0651 27.1349 23.6941 27.1269C23.7362 27.4494 23.6757 27.7769 23.5211 28.0629L23.4481 28.2019ZM17.8781 31.6669C18.4981 30.5919 18.8791 29.9149 19.1381 29.6749C18.9721 29.6949 18.8041 29.6949 18.6421 29.6689L18.5081 29.6489C18.1251 30.3259 17.3701 31.4369 16.6901 31.8249C16.6901 31.8249 16.5161 30.9249 18.5161 29.1009C18.5431 29.0269 18.5831 28.9409 18.6401 28.8469C18.4571 28.9129 18.2481 28.9479 18.0151 28.9439L17.9891 28.9469C17.2221 29.6959 15.6051 31.3789 15.7561 33.2029C15.7561 33.2029 17.2601 32.7439 17.8771 31.6659L17.8781 31.6669ZM19.5491 27.8249C19.5371 27.8049 19.3421 27.5519 19.2901 27.1529C18.9581 27.2699 18.7251 27.3329 18.2401 27.6529C17.5221 28.1209 17.8161 28.7129 17.8161 28.7129C18.8911 28.8549 19.4071 27.9909 19.5491 27.8249ZM27.8241 28.8549C27.9041 28.6019 28.2491 28.1339 28.2571 27.3699C28.2581 27.0809 27.7321 26.6119 27.5851 26.2399C27.0951 26.6669 27.0281 27.5259 27.0851 27.8129C27.1961 28.3699 27.8251 28.8549 27.8251 28.8549H27.8241ZM17.2621 35.0809C17.8391 35.5939 18.4281 35.8769 18.7391 35.5449C19.0701 35.1899 18.7121 34.6629 18.1371 34.1489C17.5661 33.6349 17.0001 33.3249 16.6671 33.6819C16.3291 34.0379 16.6901 34.5649 17.2621 35.0809ZM19.8861 32.6289C20.3111 31.9469 20.4181 30.5789 20.5091 29.2479C20.5012 29.1662 20.4972 29.0841 20.4971 29.0019C20.4651 29.0339 20.4281 29.0619 20.3971 29.0899C20.311 29.1555 20.2226 29.2178 20.1321 29.2769C20.1321 29.2769 19.9421 31.4869 19.3141 32.2239C19.1141 31.4019 19.5991 30.3369 19.8531 29.4409C19.7647 29.4852 19.6742 29.5253 19.5821 29.5609C18.8541 30.7259 17.9891 32.3969 18.7051 33.6449C18.7051 33.6449 19.4721 33.2979 19.8861 32.6289ZM24.3451 34.8089C24.3451 34.8089 24.8371 34.9329 25.1501 34.7939C25.1501 34.7939 25.2631 34.3339 25.6141 34.1279C25.6921 34.0839 25.9371 34.0119 26.1641 33.8999C26.0781 33.8329 26.0011 33.7899 25.8981 33.6709C25.8981 33.6709 25.5001 33.8149 25.1711 34.0319C24.8411 34.2479 24.5191 34.6189 24.3451 34.8089ZM26.8131 20.7419C26.9551 20.2699 26.6511 19.8139 26.5381 19.5579C26.2821 19.7599 26.0731 19.9759 26.0381 20.5359C26.0061 21.0959 26.1581 21.8239 26.1581 21.8239C26.3531 21.4199 26.6721 21.2159 26.8131 20.7419ZM28.4221 18.9049H28.4151C28.2951 18.9579 27.8031 19.2129 27.7671 19.5749C27.7321 19.9379 28.3911 20.6069 28.4111 20.8849H28.4251C28.4461 20.6069 29.1041 19.9379 29.0701 19.5749C29.0371 19.2129 28.5441 18.9579 28.4221 18.9049ZM26.1261 17.5449C26.2581 18.0079 26.4861 18.4449 26.7101 18.7849C26.9121 19.0989 27.0401 19.6029 27.0221 19.7749C27.0221 19.7749 27.3231 19.1229 27.1711 18.6619C27.0491 18.3059 26.7241 17.7699 26.1261 17.5449ZM31.4361 28.1709C31.2991 28.4669 30.9691 28.7579 30.8951 29.0159C30.8051 29.3199 30.7781 29.5119 30.9271 29.8659C31.0631 30.1749 31.2211 30.3569 31.2771 30.5459C31.2771 30.5459 31.7071 29.9989 31.7771 29.7709C31.8531 29.5459 31.8721 29.1719 31.7871 28.9359C31.6971 28.6969 31.5401 28.3889 31.4361 28.1709ZM28.8801 20.7809C28.8001 21.1159 28.8751 21.3399 29.0301 21.5449C29.1841 21.7469 29.4461 21.9679 29.6921 22.3949C29.6921 22.3949 29.9721 22.0309 30.0071 21.8409C30.0411 21.6499 29.9861 21.1959 29.9241 21.0079C29.8641 20.8139 29.6211 20.2009 29.4201 19.5759C29.4201 19.5759 28.9621 20.4409 28.8801 20.7809ZM32.4701 26.5579C32.3322 26.4421 32.2019 26.3175 32.0801 26.1849C32.0801 26.1849 31.7181 26.8279 31.6591 27.0159C31.6591 27.0159 31.8371 27.0629 32.0351 26.9209C32.2321 26.7809 32.2751 26.7429 32.4711 26.5579H32.4701ZM31.3321 24.3009C31.1821 24.5889 30.9161 25.0129 30.9161 25.0129C30.9351 25.1859 30.9221 25.4829 30.9781 25.8439C31.0361 26.2039 31.5181 26.8179 31.5181 26.8179C31.6371 26.4949 31.9201 26.0529 31.9791 25.6189C32.0131 25.3269 31.9491 24.8889 31.9491 24.8889C31.7541 24.7989 31.5071 24.5129 31.3321 24.3009ZM30.2291 21.9919C30.0963 22.1835 30.0122 22.4046 29.9841 22.6359C29.9671 22.8939 30.0091 23.1029 30.1541 23.4809C30.3381 23.9599 30.6191 24.4939 30.7491 24.7349C30.7491 24.7349 30.9991 24.3849 31.1391 24.0709C31.1391 24.0709 30.7491 23.5459 30.5801 23.1749C30.3861 22.7389 30.3071 22.3369 30.2291 21.9919ZM29.6711 18.6619C29.5161 19.1219 29.8211 19.7749 29.8211 19.7749C29.7971 19.6029 29.9251 19.0989 30.1281 18.7849C30.3521 18.4449 30.5781 18.0079 30.7141 17.5449C30.1141 17.7699 29.7891 18.3049 29.6711 18.6619ZM30.8011 20.5359C30.7651 19.9759 30.5581 19.7599 30.3001 19.5579C30.1901 19.8139 29.8841 20.2699 30.0241 20.7419C30.1681 21.2169 30.4861 21.4199 30.6791 21.8239C30.6791 21.8239 30.8341 21.0959 30.8001 20.5359H30.8011ZM26.9141 21.0079C26.8521 21.1959 26.8001 21.6499 26.8321 21.8409C26.8651 22.0309 27.1481 22.3949 27.1481 22.3949C27.3911 21.9679 27.6551 21.7469 27.8061 21.5449C27.9631 21.3399 28.0371 21.1159 27.9571 20.7799C27.8751 20.4399 27.4181 19.5759 27.4181 19.5759C27.2151 20.2009 26.9731 20.8139 26.9141 21.0079ZM28.4191 36.8059C28.4691 36.8999 28.5361 36.9879 28.6231 37.0679C29.0991 37.5129 29.4031 37.4709 29.6671 37.3769C29.6671 37.3769 28.8821 37.1189 28.9241 36.4359C28.9701 35.7569 29.3661 35.3479 29.4341 34.9949C29.5121 34.6049 29.4861 34.2329 29.1771 33.7839C28.9241 34.6209 28.6521 35.2339 28.4351 35.6519C28.4281 35.6629 28.4251 35.6759 28.4191 35.6889C28.4141 35.6759 28.4101 35.6629 28.4021 35.6519C28.0979 35.0536 27.8501 34.4283 27.6621 33.7839C27.3541 34.2329 27.3261 34.6049 27.4031 34.9939C27.4731 35.3479 27.8681 35.7569 27.9131 36.4359C27.9561 37.1189 27.1721 37.3769 27.1721 37.3769C27.4351 37.4709 27.7371 37.5129 28.2161 37.0679C28.2982 36.9929 28.3669 36.9042 28.4191 36.8059ZM27.6221 37.7889L27.7721 37.5449C27.5431 37.6449 27.2521 37.5749 27.2521 37.5749C27.2255 37.6095 27.2021 37.6463 27.1821 37.6849C26.4021 38.8089 25.5391 39.5159 24.6601 39.9789L24.9101 40.3289C25.8621 39.8229 26.7871 39.0369 27.6221 37.7889ZM32.4921 34.8089C32.3151 34.6179 31.9951 34.2479 31.6681 34.0319C31.3391 33.8149 30.9381 33.6719 30.9381 33.6719C30.8341 33.7899 30.7611 33.8329 30.6741 33.8989C30.9011 34.0119 31.1461 34.0839 31.2211 34.1289C31.5731 34.3339 31.6861 34.7939 31.6861 34.7939C31.9991 34.9339 32.4931 34.8079 32.4931 34.8079L32.4921 34.8089ZM30.9521 34.2489C30.4371 34.0959 29.6421 33.4889 29.3201 32.9169C29.3201 33.0539 29.4231 33.8239 29.6491 34.2089C29.9641 34.7459 30.4251 35.1429 30.8301 35.1429C31.2061 35.1429 31.2871 34.9229 31.4701 34.8369C31.4701 34.8369 31.3751 34.3699 30.9531 34.2479L30.9521 34.2489ZM24.3271 36.7459C24.4371 36.8009 24.9511 37.0059 25.2841 36.3339C25.2841 36.3339 24.7151 36.5169 24.5611 36.2509C24.4081 35.9819 24.6591 35.5939 24.8131 35.4809C25.0141 35.3329 25.3801 35.2349 25.5981 35.2709C25.5981 35.2709 25.4221 35.1069 25.2111 34.9999C25.1084 35.0501 24.9952 35.0748 24.8811 35.0719C24.8811 35.0719 24.1471 35.5689 24.0611 36.0669C23.9901 36.4909 24.2171 36.6939 24.3271 36.7469V36.7459ZM25.6991 24.0709C25.8371 24.3849 26.0881 24.7349 26.0881 24.7349C26.2181 24.4939 26.5031 23.9599 26.6841 23.4809C26.8291 23.1029 26.8731 22.8939 26.8531 22.6359C26.8255 22.4044 26.7414 22.1832 26.6081 21.9919C26.5311 22.3369 26.4511 22.7389 26.2581 23.1749C26.0901 23.5449 25.6991 24.0709 25.6991 24.0709ZM24.3681 26.5579C24.5621 26.7429 24.6081 26.7809 24.8041 26.9209C25.0011 27.0629 25.1821 27.0159 25.1821 27.0159C25.1201 26.8279 24.7621 26.1849 24.7621 26.1849C24.6721 26.2879 24.4551 26.4829 24.3681 26.5579ZM24.8901 24.8889C24.8901 24.8889 24.8241 25.3269 24.8601 25.6189C24.9181 26.0529 25.2001 26.4949 25.3231 26.8169C25.3231 26.8169 25.8031 26.2039 25.8591 25.8439C25.9131 25.4839 25.9061 25.1859 25.9241 25.0139C25.9241 25.0139 25.6561 24.5889 25.5091 24.3009C25.3331 24.5129 25.0841 24.7989 24.8901 24.8889ZM23.9201 34.1779C23.9201 34.1779 24.4441 34.0649 24.8471 33.9329C25.2871 33.7899 25.5921 33.5989 25.7571 33.5059C25.6781 33.3889 25.5221 33.1759 25.5561 32.8399C25.5561 32.8399 24.8621 33.2699 24.6601 33.4309C24.4501 33.5989 24.0161 34.0349 23.9201 34.1779ZM25.5621 30.5449C25.6151 30.3569 25.7761 30.1749 25.9101 29.8659C26.0601 29.5119 26.0311 29.3199 25.9441 29.0159C25.8691 28.7579 25.5401 28.4669 25.4041 28.1709C25.2971 28.3889 25.1391 28.6969 25.0531 28.9359C24.9631 29.1719 24.9881 29.5459 25.0591 29.7709C25.1311 29.9989 25.5621 30.5449 25.5621 30.5449ZM23.9721 35.6549C24.0401 35.5339 24.3241 35.1209 24.5881 35.0649C24.5881 35.0649 24.3641 35.0449 24.2351 35.0049C24.2351 35.0049 23.9651 35.0729 23.7731 35.1499C23.5811 35.2259 23.3421 35.3429 23.0591 35.5229C23.1191 35.5419 23.4451 35.6379 23.7631 35.8339C23.7631 35.8339 23.9031 35.7819 23.9731 35.6539L23.9721 35.6549ZM29.1871 22.3369C29.0571 22.6129 29.0291 22.9099 29.0711 23.0859C29.1141 23.2599 29.3431 23.5159 29.3671 23.8059C29.4031 24.2569 29.0431 24.8069 29.0431 24.8069C29.3761 24.6439 29.7551 24.2629 29.9211 24.0219C30.0861 23.7819 29.9641 23.4329 29.8911 23.2519C29.8211 23.0699 29.2871 22.4439 29.1871 22.3369ZM26.1261 25.4029C26.0061 25.9569 26.6031 26.2869 26.8821 26.7829C26.9551 26.5829 27.1871 26.0419 27.4531 25.8549C27.4531 25.8549 27.7941 24.8719 26.6961 24.2659C26.6961 24.2659 26.2451 24.8509 26.1261 25.4029ZM26.9481 23.2529C26.8761 23.4329 26.7531 23.7809 26.9181 24.0219C27.0841 24.2619 27.4651 24.6439 27.7941 24.8069C27.7941 24.8069 27.4341 24.2569 27.4741 23.8049C27.4941 23.5169 27.7241 23.2599 27.7671 23.0849C27.8111 22.9099 27.7831 22.6129 27.6521 22.3369C27.5521 22.4439 27.0191 23.0709 26.9481 23.2529ZM25.3071 27.2279C25.3071 27.2279 25.3501 27.5129 25.5671 27.9249C25.7821 28.3349 26.0811 28.6219 26.2411 28.7679C26.2411 28.7679 26.6011 28.1579 26.7071 27.8889C26.8261 27.5809 26.8131 27.2789 26.7631 27.1649C26.6391 26.8979 26.2191 26.5139 26.0311 26.1789C25.9891 26.3419 25.4071 27.1299 25.3071 27.2279ZM29.7521 27.8129C29.8121 27.5259 29.7441 26.6669 29.2551 26.2399C29.1071 26.6119 28.5781 27.0809 28.5821 27.3699C28.5921 28.1339 28.9321 28.6019 29.0141 28.8549C29.0141 28.8549 29.6421 28.3699 29.7521 27.8129ZM30.1411 24.2659C29.0421 24.8719 29.3841 25.8549 29.3841 25.8549C29.6521 26.0419 29.8821 26.5829 29.9541 26.7819C30.2341 26.2869 30.8341 25.9569 30.7141 25.4029C30.5921 24.8509 30.1411 24.2659 30.1411 24.2659ZM31.2691 27.9259C31.3894 27.7071 31.4773 27.472 31.5301 27.2279C31.4301 27.1309 30.8501 26.3419 30.8061 26.1789C30.6191 26.5139 30.1971 26.8989 30.0781 27.1649C30.0241 27.2779 30.0091 27.5809 30.1311 27.8889C30.2381 28.1589 30.5961 28.7679 30.5961 28.7679C30.7571 28.6219 31.0561 28.3339 31.2691 27.9249V27.9259ZM25.5711 31.4119C25.6381 31.6809 25.9311 32.2689 25.9311 32.2689C26.0551 32.0639 26.4211 31.5849 26.5131 31.2429C26.6051 30.9039 26.2761 30.3309 26.1581 30.1629C25.5671 30.7029 25.5071 31.1439 25.5711 31.4119ZM32.9181 34.1779C32.8211 34.0349 32.3881 33.5979 32.1791 33.4309C31.9721 33.2709 31.2791 32.8409 31.2791 32.8409C31.3151 33.1759 31.1591 33.3889 31.0811 33.5059C31.2461 33.5989 31.5501 33.7899 31.9911 33.9329C32.3921 34.0649 32.9181 34.1779 32.9181 34.1779ZM26.3791 28.9739C26.2472 29.2441 26.2215 29.5538 26.3071 29.8419C26.4231 30.1919 26.9541 30.6809 26.9541 30.6809C27.1091 30.4169 27.3401 30.0679 27.4131 29.8929C27.4861 29.7129 27.5281 29.5009 27.4801 29.2429C27.4201 28.9129 27.0321 28.4969 26.9041 28.2449C26.7831 28.4869 26.5051 28.7389 26.3791 28.9739ZM30.0391 31.5889C30.0571 31.1249 29.3161 30.2499 29.3161 30.2499C28.9241 30.6189 28.8271 30.8519 28.7861 31.2219C28.7381 31.5889 28.8661 31.8669 29.0331 32.1889C29.1801 32.4789 29.5701 32.9069 29.5701 32.9069C29.6221 32.5529 30.0181 32.1669 30.0401 31.5889H30.0391ZM29.8841 30.6809C29.8841 30.6809 30.4141 30.1919 30.5301 29.8409C30.6201 29.5789 30.5851 29.2049 30.4571 28.9739C30.3311 28.7399 30.0551 28.4869 29.9331 28.2439C29.8071 28.4969 29.4201 28.9139 29.3581 29.2439C29.317 29.4624 29.3396 29.688 29.4231 29.8939C29.4961 30.0679 29.7311 30.4169 29.8841 30.6809ZM30.5461 33.7219C30.5461 33.7219 30.8711 33.4979 31.0001 33.2069C31.1221 32.9319 31.0531 32.7359 30.9261 32.5969C30.8011 32.4539 30.5061 32.1239 30.3791 31.9099C30.2971 32.1639 30.0541 32.6359 30.0211 32.7789C29.9641 33.0489 30.0411 33.3749 30.5461 33.7219ZM29.0371 33.0639C29.0511 32.6249 28.6531 31.9419 28.4241 31.6799H28.4121C28.1871 31.9419 27.7871 32.6249 27.8011 33.0639C27.8281 33.9389 28.3911 34.7639 28.4201 35.0309C28.4471 34.7649 29.0101 33.9389 29.0371 33.0639ZM26.2911 33.7219C26.7941 33.3749 26.8741 33.0489 26.8151 32.7789C26.7831 32.6359 26.5391 32.1639 26.4581 31.9089C26.3331 32.1239 26.0371 32.4539 25.9111 32.5959C25.7851 32.7359 25.7161 32.9319 25.8361 33.2069C25.9661 33.4979 26.2911 33.7219 26.2911 33.7219ZM30.6801 30.1639C30.5601 30.3319 30.2331 30.9039 30.3251 31.2429C30.4221 31.5849 30.7851 32.0639 30.9071 32.2689C30.9071 32.2689 31.1991 31.6809 31.2661 31.4119C31.3321 31.1439 31.2701 30.7019 30.6801 30.1639ZM33.0481 34.9939C33.5301 35.1719 33.9681 35.4629 33.9681 35.4629C34.2401 35.3789 34.7581 35.2379 34.7581 35.2379C34.4231 34.8789 34.1671 34.7039 33.8161 34.6009C33.4621 34.4999 32.6271 34.3689 32.2541 34.2369C32.5841 34.5559 32.7381 34.8749 33.0481 34.9939ZM28.0581 31.2219C28.0111 30.8519 27.9131 30.6189 27.5251 30.2499C27.5251 30.2499 26.7831 31.1249 26.8001 31.5889C26.8221 32.1659 27.2151 32.5529 27.2701 32.9069C27.2701 32.9069 27.6571 32.4789 27.8061 32.1889C27.9721 31.8669 28.0981 31.5889 28.0581 31.2219ZM28.4191 27.0099C28.4921 26.6829 29.1921 26.0529 29.1261 25.7079C29.0301 25.1939 28.6921 25.3029 28.4241 25.0859H28.4191C28.1491 25.3029 27.8061 25.1939 27.7091 25.7079C27.6471 26.0529 28.3431 26.6829 28.4151 27.0099H28.4191ZM28.4131 30.8479H28.4231C28.4791 30.6339 28.8151 30.3749 28.9531 29.9989C29.0361 29.7789 29.0331 29.5189 28.9431 29.3419C28.8381 29.1349 28.4611 28.6269 28.4191 28.4819C28.3721 28.6269 28.0001 29.1349 27.8921 29.3419C27.8021 29.5189 27.8001 29.7779 27.8821 29.9989C28.0221 30.3749 28.3571 30.6339 28.4131 30.8479Z" fill="white"/>
<path d="M60.994 0H116.834V55.84H60.994V0Z" fill="#CC003D"/>
<mask id="mask0_0_82" style="mask-type:luminance" maskUnits="userSpaceOnUse" x="69" y="15" width="39" height="27">
<path d="M107.899 15.123H69.137V41.087H107.899V15.123Z" fill="white"/>
</mask>
<g mask="url(#mask0_0_82)">
<path d="M101.476 32.957C101.64 32.271 101.856 30.265 101.856 30.265H99.93C99.918 30.47 99.876 31.155 99.816 31.854C99.726 32.889 99.427 33.842 98.386 33.842H97.584C97.582 33.755 97.584 30.265 97.584 30.265H95.624V41.088H97.584V35.593H98.765L100.689 41.084H102.792L100.437 34.743C100.926 34.373 101.306 33.664 101.476 32.957ZM79.27 20.83C79.286 17.903 79.998 16.94 80.749 16.923C81.499 16.94 82.211 17.903 82.227 20.831V20.832C82.211 23.692 81.499 24.669 80.749 24.684C79.999 24.669 79.286 23.692 79.269 20.832L79.27 20.83ZM80.705 26.458L80.732 26.459L80.749 26.458L80.766 26.459L80.793 26.458C82.089 26.433 83.33 25.65 83.868 23.433C84.075 22.68 84.18 21.745 84.181 20.78L84.177 20.43C84.143 18.884 83.882 17.775 83.477 16.986C82.838 15.641 81.822 15.137 80.772 15.125L80.766 15.123H80.732L80.725 15.125C79.675 15.137 78.659 15.641 78.021 16.986C77.616 17.776 77.355 18.884 77.321 20.431L77.316 20.781C77.317 21.745 77.423 22.68 77.629 23.433C78.167 25.65 79.409 26.433 80.705 26.458ZM71.762 39.413C71.572 39.413 71.093 39.369 71.093 39.369V35.559C71.093 35.559 71.247 35.523 71.415 35.523C72.408 35.523 73.581 35.463 73.581 37.467C73.581 39.302 72.292 39.413 71.762 39.413ZM71.999 33.806C71.662 33.806 71.362 33.814 71.093 33.828V32.065H74.605V30.265H69.136V41.085H72.106C75.068 41.085 75.526 38.407 75.526 37.416C75.526 36.245 75.071 33.806 71.999 33.806ZM91.09 33.723H88.403V30.265H86.45V41.088H88.403V35.522H91.09V41.088H93.044V30.265H91.09V33.723ZM97.57 26.222V17.202H99.196V15.403H93.963V17.203H95.589V26.222H97.57ZM89.836 20.998V26.222H91.795V15.403H89.835V19.171H88.771C88.331 19.171 88.004 19.071 87.796 18.869C87.648 18.729 87.576 18.538 87.576 18.291V15.403H85.616V18.493C85.616 19.204 85.892 19.806 86.439 20.285C86.979 20.759 87.639 20.998 88.405 20.998H89.836ZM71.093 17.203H73.518V26.222H75.478V15.403H69.136V26.222H71.093V17.203ZM79.608 34.033C79.612 33.813 79.653 32.273 79.656 32.065L80.002 32.042C81.429 32.042 81.69 32.321 81.822 34.032L79.608 34.033ZM80.467 30.265H77.81L77.449 41.087H79.385C79.385 41.087 79.563 36.069 79.574 35.83L82.021 35.832C82.043 36.05 82.408 41.087 82.408 41.087H84.408C84.408 41.087 83.72 33.654 83.664 33.177C83.441 31.263 82.556 30.265 80.467 30.265ZM103.1 19.171C103.105 18.951 103.145 17.411 103.148 17.203H103.517C104.942 17.203 105.181 17.458 105.314 19.171H103.1ZM107.156 18.316C106.932 16.401 106.048 15.403 103.959 15.403H101.302L100.94 26.224H102.877C102.877 26.224 103.055 21.206 103.066 20.969H105.512C105.535 21.188 105.9 26.224 105.9 26.224H107.899C107.899 26.224 107.211 18.792 107.156 18.316Z" fill="white"/>
</g>
</g>
<defs>
<clipPath id="clip0_0_82">
<rect width="117" height="56" fill="white" transform="translate(0.5)"/>
</clipPath>
</defs>
</svg>
