<svg width="206" height="46" viewBox="0 0 206 46" fill="none" xmlns="http://www.w3.org/2000/svg">
<g clip-path="url(#clip0_0_92)">
<mask id="mask0_0_92" style="mask-type:luminance" maskUnits="userSpaceOnUse" x="0" y="0" width="206" height="46">
<path d="M205.647 0H0V46H205.647V0Z" fill="white"/>
</mask>
<g mask="url(#mask0_0_92)">
<path d="M0 6.76465H35.1765V24.6791C35.1765 29.2729 32.7291 33.5081 28.75 35.8137L17.5882 42.3885L6.43825 35.8137C2.45917 33.5253 0.0170774 29.2729 0.0170774 24.6791V6.76465H0Z" fill="#FFDD2D"/>
<path fill-rule="evenodd" clip-rule="evenodd" d="M9.47058 16.1917V21.7589C10.2391 20.905 11.6224 20.3243 13.1935 20.3243H14.9183V26.7968C14.9183 28.5215 14.4573 30.0244 13.7571 30.8612H21.4171C20.7169 30.0244 20.2941 28.5215 20.2941 26.7968V20.3243H21.9718C23.56 20.3243 24.9545 20.905 25.7059 21.7589V16.1917H9.47058Z" fill="#333333"/>
<path d="M196.177 15.3964H192.118V16.8966C186.431 17.0191 182.647 19.4273 182.647 23.6773C182.647 27.9272 186.431 30.1488 192.118 30.2711V31.7715H196.177V30.2711C201.894 30.1488 205.666 27.9272 205.666 23.6773C205.666 19.4273 201.894 17.0191 196.177 16.8966V15.3964ZM192.118 27.0837C188.995 26.9613 187.234 25.6799 187.234 23.6773C187.234 21.6747 188.988 20.2387 192.118 20.1164V27.0837ZM196.177 20.1164C199.332 20.2387 201.043 21.681 201.043 23.6773C201.043 25.6734 199.332 26.9613 196.177 27.0837V20.1164Z" fill="#333333"/>
<path d="M171.824 15.3964H167.765V16.8966C162.078 17.0191 158.294 19.4273 158.294 23.6773C158.294 27.9272 162.078 30.1488 167.765 30.2711V31.7715H171.824V30.2711C177.541 30.1488 181.313 27.9272 181.313 23.6773C181.313 19.4273 177.541 17.0191 171.824 16.8966V15.3964ZM167.765 27.0837C164.642 26.9613 162.881 25.6799 162.881 23.6773C162.881 21.6747 164.635 20.2387 167.765 20.1164V27.0837ZM171.824 20.1164C174.979 20.2387 176.69 21.681 176.69 23.6773C176.69 25.6734 174.979 26.9613 171.824 27.0837V20.1164Z" fill="#333333"/>
<path d="M147.234 15.8344C141.143 15.8344 137.484 19.273 137.484 23.7096C137.484 28.1462 141.143 31.5849 147.234 31.5849C153.325 31.5849 156.95 28.1462 156.95 23.7096C156.95 19.273 153.293 15.8344 147.234 15.8344ZM147.234 27.9595C144.2 27.9595 142.263 26.1501 142.263 23.7096C142.263 21.2691 144.2 19.4919 147.234 19.4919C150.267 19.4919 152.204 21.2756 152.204 23.7096C152.204 26.1436 150.234 27.9595 147.234 27.9595Z" fill="#333333"/>
<path d="M126.188 25.4929L131.597 31.1209H137.631L130.097 23.3743L137.347 16.2524H131.661L126.194 21.8482H124.945V16.2524H120.412V31.1274H124.945V25.4994H126.194L126.188 25.4929Z" fill="#333333"/>
<path d="M112.006 31.1146C113.036 31.1146 113.976 31.018 114.852 30.7734C117.196 30.1166 118.729 28.2106 118.729 25.6155C118.729 23.0204 117.415 21.4299 115.322 20.6444C114.324 20.2708 113.133 20.2386 112.012 20.2386H107.357V16.2399H102.824V31.1146H112.012H112.006ZM111.227 23.7417C111.851 23.7417 112.444 23.7417 112.978 23.9284C113.725 24.1795 114.163 24.8041 114.163 25.5511C114.163 26.298 113.725 26.9871 113.004 27.3026C112.502 27.5215 112.006 27.5215 111.22 27.5215H107.344V23.7417H111.22H111.227Z" fill="#333333"/>
<path d="M95.5853 25.5866V31.1179H100.118V16.2432H95.5853V22.1293H88.4156V16.2432H83.8823V31.1179H88.4156V25.5866H95.5853Z" fill="#333333"/>
<path d="M69.4745 24.8944V16.2399H64.9412V31.1146H68.9399L76.6441 22.4603V31.1146H81.1765V16.2399H77.1718L69.4745 24.8944Z" fill="#333333"/>
<path d="M57.2294 31.1182V20.2942H63.5882V16.2354H46V20.2942H52.3588V31.1182H57.2294Z" fill="#333333"/>
</g>
</g>
<defs>
<clipPath id="clip0_0_92">
<rect width="205.647" height="46" fill="white"/>
</clipPath>
</defs>
</svg>
